<?xml version="1.0" encoding="utf-8"?>
<!-- Generator: Adobe Illustrator 21.1.0, SVG Export Plug-In . SVG Version: 6.00 Build 0)  -->
<svg version="1.1" id="Layer_1" xmlns="http://www.w3.org/2000/svg" xmlns:xlink="http://www.w3.org/1999/xlink" x="0px" y="0px"
	 viewBox="0 0 149.9 207.9" style="enable-background:new 0 0 149.9 207.9;" xml:space="preserve">
<title>Artboard 2</title>
<path d="M74.6,207.9l-4.1-2.7l-0.3-0.3c-1.6-1.4-39.6-34.9-60.8-84.1C-4.2,89.3-2.9,53.7,12.6,30.1C21.6,16.4,39.6,0,74.3,0h1.3
	c34.7,0,52.7,16.3,61.7,30.1c15.5,23.6,16.8,59.2,3.2,90.7c-21.2,49.2-59.2,82.7-60.8,84.1l-0.5,0.4L74.6,207.9z M74.3,12.4
	c-23.1,0-40.8,8.5-51.4,24.5c-13.3,20.2-14.1,51.2-2.1,79c16.5,38.3,44.5,67.2,54.2,76.5c9.7-9.3,37.7-38.3,54.2-76.5
	c12-27.8,11.1-58.8-2.1-79c-10.5-16-28.3-24.5-51.4-24.5C75.7,12.4,74.3,12.4,74.3,12.4z M74.5,117.2c-18.7,0-34-15.2-34-34
	c0-18.7,15.2-34,34-34s34,15.2,34,34C108.5,101.9,93.2,117.2,74.5,117.2z M74.5,61.6c-11.9,0-21.6,9.7-21.6,21.6
	c0,11.9,9.7,21.6,21.6,21.6s21.6-9.7,21.6-21.6S86.4,61.6,74.5,61.6z"/>
</svg>
