<?xml version="1.0" encoding="utf-8"?>
<!-- Generator: Adobe Illustrator 21.1.0, SVG Export Plug-In . SVG Version: 6.00 Build 0)  -->
<svg version="1.1" id="Layer_1" xmlns="http://www.w3.org/2000/svg" xmlns:xlink="http://www.w3.org/1999/xlink" x="0px" y="0px"
	 viewBox="0 0 206.3 138.4" style="enable-background:new 0 0 206.3 138.4;" xml:space="preserve">
<title>Artboard 5</title>
<path d="M197.5,17.6H8.8c-4.9,0-8.8-4-8.8-8.8S4,0,8.8,0h188.7c4.9,0,8.8,4,8.8,8.8S202.4,17.6,197.5,17.6z M197.5,78H8.8
	C3.9,78,0,74,0,69.2s4-8.8,8.8-8.8h188.7c4.9,0,8.8,4,8.8,8.8S202.4,78,197.5,78z M197.5,138.4H8.8c-4.9,0-8.8-4-8.8-8.8
	c0-4.8,4-8.8,8.8-8.8h188.7c4.9,0,8.8,4,8.8,8.8C206.3,134.4,202.4,138.4,197.5,138.4z"/>
</svg>
