<svg id="Layer_1" data-name="Layer 1" xmlns="http://www.w3.org/2000/svg" viewBox="0 0 300 300"><defs><style>.cls-1{fill:none;stroke:#fff;stroke-linecap:round;stroke-linejoin:round;stroke-width:11.5px;}</style></defs><title>Artboard 6</title><line class="cls-1" x1="188.68" y1="40.86" x2="188.68" y2="100.92"/><line class="cls-1" x1="205.06" y1="40.86" x2="205.06" y2="100.92"/><path class="cls-1" d="M171.55,40.86v60.06s-1.17,18.72,11.31,26.52c8.58,5.46,8.19,6.63,8.19,14.82s-3.51,111.93-3.51,111.93,2,7.8,8.19,7.8h1.92c6.24,0,8.19-7.8,8.19-7.8s-3.51-103.74-3.51-111.93-.39-9.36,8.19-14.82c12.48-7.8,11.31-26.52,11.31-26.52V40.86"/><path class="cls-1" d="M109.76,262c3.35-.41,9.36-2.34,9.36-9.75s-2.34-115.83-2.34-115.83.78-3.51,6.63-6.63,16.38-18.72,16.38-42.9S127.7,41.64,110.15,41.64h-.91C91.69,41.64,79.6,62.7,79.6,86.88S90.13,126.66,96,129.78s6.63,6.63,6.63,6.63-2.34,108.42-2.34,115.83,6,9.34,9.36,9.75Z"/></svg>