<?xml version="1.0" encoding="utf-8"?>
<!-- Generator: Adobe Illustrator 21.1.0, SVG Export Plug-In . SVG Version: 6.00 Build 0)  -->
<svg version="1.1" id="Layer_1" xmlns="http://www.w3.org/2000/svg" xmlns:xlink="http://www.w3.org/1999/xlink" x="0px" y="0px"
	 viewBox="0 0 212.8 218.6" style="enable-background:new 0 0 212.8 218.6;" xml:space="preserve">
<title>Artboard 3</title>
<path d="M211.3,40.8c-1.1-1.3-2.7-2.1-4.4-2.2L75.6,31.8c-3.4-0.2-6.3,2.4-6.5,5.9c-0.2,3.4,2.4,6.3,5.9,6.5l124.6,6.5l-7.6,57.5
	l-96.8,10.4L49.2,8.3c-0.9-2.1-2.8-3.5-5-3.8L6.9,0C3.5-0.4,0.4,2,0,5.4s2,6.5,5.4,6.9L39,16.4l45.1,108L71,142.1
	c-0.1,0.1-0.1,0.2-0.2,0.2c-0.6,0.8-5.4,8.4-1.6,15.5c2.8,5.2,8.9,7.8,18.2,7.8h113c3.4,0,6.2-2.8,6.2-6.2s-2.8-6.2-6.2-6.2h-113
	c-5.1,0-6.8-1-7.2-1.2c0-0.6,0.4-1.8,0.9-2.7l13.5-18.2L198.1,120c2.8-0.3,5.1-2.5,5.5-5.3l9.1-69C212.9,43.9,212.4,42.2,211.3,40.8
	z M91.2,169.8c-13.4,0-24.4,10.9-24.4,24.4s10.9,24.4,24.4,24.4s24.4-10.9,24.4-24.4S104.6,169.8,91.2,169.8z M91.2,206.2
	c-6.6,0-12-5.4-12-12s5.4-12,12-12c6.6,0,12,5.4,12,12S97.8,206.2,91.2,206.2z M184.5,169.8c-13.4,0-24.4,10.9-24.4,24.4
	s10.9,24.4,24.4,24.4c13.4,0,24.4-10.9,24.4-24.4S197.9,169.8,184.5,169.8z M184.5,206.2c-6.6,0-12-5.4-12-12s5.4-12,12-12
	s12,5.4,12,12S191.1,206.2,184.5,206.2z"/>
</svg>
