<?xml version="1.0" encoding="utf-8"?>
<!-- Generator: Adobe Illustrator 21.1.0, SVG Export Plug-In . SVG Version: 6.00 Build 0)  -->
<svg version="1.1" id="Layer_1" xmlns="http://www.w3.org/2000/svg" xmlns:xlink="http://www.w3.org/1999/xlink" x="0px" y="0px"
	 viewBox="0 0 219.2 202.5" style="enable-background:new 0 0 219.2 202.5;" xml:space="preserve">
<title>Artboard 7</title>
<path d="M213,97.5c-1.4,0-2.8-0.5-3.9-1.4l-99.5-82l-99.5,82c-2.6,2.2-6.5,1.8-8.7-0.8s-1.8-6.5,0.8-8.7L104.5,2.3l0.8-0.7
	c2.2-1.9,5.4-2.1,7.8-0.4l1.1,0.8c0.1,0.1,0.2,0.1,0.3,0.2l102.4,84.4c2.6,2.2,3,6.1,0.8,8.7C216.6,96.7,214.8,97.5,213,97.5z
	 M198.9,202.5h-67.6c-3.4,0-6.2-2.8-6.2-6.2v-46H94.7v46c0,3.4-2.8,6.2-6.2,6.2H20.9c-3.4,0-6.2-2.8-6.2-6.2v-84.8
	c0-3.4,2.8-6.2,6.2-6.2s6.2,2.8,6.2,6.2v78.6h55.2v-46c0-3.4,2.8-6.2,6.2-6.2h42.8c3.4,0,6.2,2.8,6.2,6.2v46h55.2v-78.6
	c0-3.4,2.8-6.2,6.2-6.2s6.2,2.8,6.2,6.2v84.8C205.1,199.7,202.3,202.5,198.9,202.5z"/>
</svg>
