<?xml version="1.0" encoding="utf-8"?>
<!-- Generator: Adobe Illustrator 21.1.0, SVG Export Plug-In . SVG Version: 6.00 Build 0)  -->
<svg version="1.1" id="Layer_1" xmlns="http://www.w3.org/2000/svg" xmlns:xlink="http://www.w3.org/1999/xlink" x="0px" y="0px"
	 viewBox="0 0 228 192.2" style="enable-background:new 0 0 228 192.2;" xml:space="preserve">
<title>Artboard 4</title>
<path d="M228,81.2c0-14.8-4.8-40.9-37-49.5c-3.8-1-7.4-1.5-10.9-1.6c-1.4-2.2-19.2-29.3-60.5-30.1h-0.1C86.7,0,66.9,15.6,56,28.6
	c-0.6,0.7-1.1,1.3-1.6,2c-35.7-4.3-47.8,16.7-51.3,26c-7.5,19.6-0.8,44.3,14.8,55.1c8,5.5,15.7,8,22.8,8.8v46.7
	c-10.1,7.9-14.2,15.1-14.5,15.8c-1.6,3-0.5,6.7,2.4,8.4c0.9,0.5,2,0.8,3,0.8c2.2,0,4.3-1.1,5.4-3.2c0-0.1,4.7-8.2,17-16
	c20.8-13.2,46.9-15.4,65.2-14.9c28.7,0.7,47.6,5.2,59.2,9.5c1.1,1.5,2.9,2.4,4.9,2.4c0.3,0,0.6,0,0.9-0.1
	c10.9,4.9,14.7,9.6,14.7,9.6l-0.1-0.1l10-7.3c-0.5-0.7-5.4-7-19-13.3c-0.1,0-0.2-0.1-0.3-0.1v-37.5C211.2,118.5,228,96.1,228,81.2z
	 M119.7,145.7c-30.6-0.8-52,5.7-66.5,13.5v-39.1c11.3-1.8,19-7.1,19.6-7.5c2.8-2,3.5-5.8,1.5-8.6s-5.8-3.5-8.6-1.5
	c-0.2,0.1-19.7,13.5-40.6-0.9C14.1,93.9,9.3,75.4,14.8,61c4.7-12.4,16-18.9,31.9-18.6c-4.5,8.2-6.3,14.5-6.4,14.9
	c-0.9,3.3,1,6.7,4.3,7.6c0.5,0.2,1.1,0.2,1.6,0.2c2.7,0,5.2-1.8,6-4.6c0.1-0.5,13.9-48.2,67.3-48.2c25.8,0.5,40.5,13,46.7,19.9
	c-13,4.3-21.9,14.3-25.6,21.2c-1.6,3-0.6,6.8,2.4,8.4s6.8,0.5,8.4-2.4c0.5-0.9,12.4-22.1,36.5-15.7c23,6.1,27.8,23.8,27.8,37.5
	c0,7.4-11,24.5-26,27.5V93.9c0-3.4-2.8-6.2-6.2-6.2s-6.2,2.8-6.2,6.2V154C161.5,149.1,142.3,146.3,119.7,145.7z"/>
</svg>
