<?xml version="1.0" encoding="utf-8"?>
<!-- Generator: Adobe Illustrator 21.1.0, SVG Export Plug-In . SVG Version: 6.00 Build 0)  -->
<svg version="1.1" id="Layer_1" xmlns="http://www.w3.org/2000/svg" xmlns:xlink="http://www.w3.org/1999/xlink" x="0px" y="0px"
	 viewBox="0 0 153.8 232.9" style="enable-background:new 0 0 153.8 232.9;" xml:space="preserve">
<title>Artboard 6</title>
<path d="M114.7,71.6c-3.2,0-5.8-2.6-5.8-5.8v-60c0-3.2,2.6-5.8,5.8-5.8s5.8,2.6,5.8,5.8v60C120.5,69.1,117.9,71.6,114.7,71.6z
	 M131.1,71.6c-3.2,0-5.8-2.6-5.8-5.8v-60c0-3.2,2.6-5.8,5.8-5.8c3.2,0,5.8,2.6,5.8,5.8v60C136.8,69.1,134.3,71.6,131.1,71.6z
	 M123.7,232.8h-1.9c-8.4,0-12.6-7.6-13.8-12.1c-0.1-0.5-0.2-1.1-0.2-1.6c0-1,3.5-103.7,3.5-111.7v-1.1c0-2.3,0-4.3-0.3-4.9
	c-0.6-1.1-4-3.2-5.2-4c-14.6-9.1-14.1-29.1-14-31.5v-60c0-3.2,2.6-5.8,5.8-5.8s5.8,2.6,5.8,5.8V66c0,0.1,0,0.2,0,0.4
	c0,0.1-0.8,15.4,8.6,21.3c8.3,5.3,10.4,8.3,10.8,14.7c0.4-6.4,2.5-9.4,10.8-14.7c9.3-5.8,8.6-21.1,8.6-21.3c0-0.1,0-0.2,0-0.4V5.9
	c0-3.2,2.6-5.8,5.8-5.8c3.2,0,5.8,2.6,5.8,5.8v59.9c0.1,2.4,0.6,22.4-14,31.5c-1.1,0.7-4.6,2.9-5.2,4c-0.3,0.6-0.3,2.6-0.3,4.9v1.1
	c0,8,3.5,110.7,3.5,111.7c0,0.5,0,1.1-0.2,1.6C136.3,225.1,132.1,232.8,123.7,232.8z M119.4,218.4c0.5,1.1,1.4,2.9,2.4,2.9h1.9
	c1,0,1.9-1.7,2.4-2.9c-0.3-10.2-2.8-84.4-3.4-105.8C122.2,134,119.7,208.2,119.4,218.4z M35.8,232.8c-0.7,0-1.3-0.1-2-0.3
	c-8.1-1.5-13.1-7.2-13.1-15.2c0-7,2-101.7,2.3-114.6c-0.4-0.6-1.4-1.6-3.5-2.7C11.4,95.8,0,78.1,0,52C0,23,15.2,1.1,35.4,1.1h0.9
	C56.5,1.1,71.7,23,71.7,52c0,26-11.4,43.7-19.5,48c-2.1,1.1-3.1,2.2-3.5,2.8C49,115.9,51,210.3,51,217.4c0,8.4-5.7,14.4-14.5,15.5
	C36.3,232.7,36,232.8,35.8,232.8z M35.4,12.5c-13.2,0-23.9,17.7-23.9,39.4c0,23.4,10.4,36.3,13.3,37.8c7.9,4.2,9.4,9.5,9.6,10.6
	c0.1,0.4,0.1,0.8,0.1,1.2c0,1.1-2.3,108.4-2.3,115.7c0,1.2,0,3.3,3.8,3.9c3.4-0.7,3.4-2.9,3.4-3.9c0-7.4-2.3-114.6-2.3-115.7
	c0-0.5,0-0.9,0.1-1.4c0.2-1,1.8-6.3,9.5-10.4c4-2.1,13.4-15.9,13.4-37.8c0-22.1-10.5-39.4-23.9-39.4L35.4,12.5L35.4,12.5z"/>
</svg>
