<?xml version="1.0" encoding="utf-8"?>
<!-- Generator: Adobe Illustrator 21.1.0, SVG Export Plug-In . SVG Version: 6.00 Build 0)  -->
<svg version="1.1" id="Layer_1" xmlns="http://www.w3.org/2000/svg" xmlns:xlink="http://www.w3.org/1999/xlink" x="0px" y="0px"
	 viewBox="0 0 201.2 134.1" style="enable-background:new 0 0 201.2 134.1;" xml:space="preserve">
<style type="text/css">
	.st0{fill:#FFFFFF;}
</style>
<g>
	<g>
		<path d="M44.4,74.7C44.1,74.4,44,74,44,73.5l0.1-9c0.1-4.4,0.2-7.7,0.2-10.1c0-8.3-0.5-14.7-1.4-19.2c0.5-0.8,1.2-1.2,2-1.2
			c1.3,0,2.5,0.3,3.6,0.9c1.1,0.6,2,1.4,2.7,2.4c1.4,2.1,2.1,4.4,2.1,7c0,2.7-0.6,5.1-1.7,7.2c-1.1,2.1-2.8,3.8-5,4.9l0.1,5.4
			l0.1,2.8c0,0.6,0.1,1.5,0.1,2.6c0.1,2.4,0.2,4.3,0.2,5.8c0,0.7-0.1,1.2-0.4,1.6c-0.3,0.4-0.7,0.6-1.3,0.6
			C44.9,75.2,44.6,75.1,44.4,74.7z M49.6,49.6c0.7-1.4,1-3.1,1-4.9v-0.1c0-0.8-0.1-1.9-0.3-3.1c-0.1-0.4-0.3-0.9-0.6-1.3
			c-0.3-0.4-0.4-0.7-0.5-0.8c-0.3-0.4-0.9-0.9-2-1.7l-1.4-1c0,1.8,0.1,4.7,0.3,8.5l0.3,8.5C47.9,52.4,49,51,49.6,49.6z"/>
		<path d="M60.2,75.2c-0.4-0.3-0.6-0.7-0.6-1.2v-1.4v-1.1c0-0.3-0.1-0.7-0.1-1.1c0-0.8-0.1-1.9-0.2-3.4l-0.1-3.4
			c0-1.8,0.1-4.4,0.2-7.8c0.1-3.1,0.2-5.7,0.2-7.8c0-0.5-0.1-1.3-0.2-2.3c-0.1-1-0.2-1.8-0.2-2.3c0-2.5,0.8-3.8,2.3-3.8
			c1.2,0,2.5,0.2,4.1,0.7c1.6,0.5,2.3,1,2.3,1.7c0,0.4-0.2,0.7-0.5,1c-0.3,0.3-0.7,0.5-1.1,0.7c-1.5-0.5-2.9-0.9-4.1-1.1
			c0,0.5,0.1,1.3,0.1,2.3c0,1.4,0,2.7-0.1,3.9c-0.1,1.7-0.2,3-0.2,3.9l0.2,0.9l0.9-0.1c0.3,0,0.6-0.1,1.1-0.1c1.7,0,2.6,0.5,2.6,1.5
			c0,0.4-0.2,0.7-0.5,1c-0.3,0.3-0.7,0.4-1.2,0.4c-0.6,0-1.1,0-1.5-0.1h-1.3c0.1,0.9,0.1,2.3,0.1,4.1c0,1.8,0,3.4-0.1,4.8
			c-0.1,2.2-0.2,3.8-0.2,4.9c0,2,0,3,0.1,3l1.8-0.1c0.6,0,1.3-0.1,2.2-0.1c1.4,0,2,0.4,2,1.3c0,0.5-0.2,0.9-0.7,1.2
			c-0.4,0.3-1,0.4-1.6,0.4h-4.6C61,75.7,60.6,75.5,60.2,75.2z"/>
		<path d="M77.9,75.1c-0.8-0.6-1.4-1.4-1.9-2.4c-1-2.2-1.7-4.6-1.9-7.1c-0.3-2.4-0.5-4.8-0.5-7c0-0.4,0-0.8,0.1-1.1v-1
			c0-0.2,0-0.3-0.1-0.3v-1l0.1-3.8c0-1.1,0.2-3,0.4-5.5c0.2-1.7,0.6-3.4,1.2-5c0.2-0.7,0.6-1.3,1-1.6c0.4-0.4,0.8-0.6,1.3-0.6
			c1.4,0,2.7,0.3,3.9,0.8c1.1,0.5,2.1,1.2,2.9,2.2c0.7,0.9,1.3,2,1.8,3.3c0.5,1.3,0.9,2.7,1.1,4.2c0.2,1.5,0.3,3.1,0.3,4.8v0.4
			c0,1.1,0,2.1,0.1,3l0.1,3.1c0,10.3-2.4,15.5-7.2,15.5C79.6,76,78.7,75.7,77.9,75.1z M82.1,73c0.5-0.5,0.9-1.2,1.2-2.1
			c0.7-1.8,1.1-3.8,1.2-5.9c0.2-1.8,0.3-3.4,0.3-4.7c0-1.6-0.1-3.7-0.4-6.3c-0.2-2.8-0.3-4.8-0.3-6.2v-1c-0.1-1.4-0.5-2.5-1.4-3.5
			c-0.8-1-1.9-1.5-3.1-1.5c-1.2,0-2,0.7-2.4,2.1c-0.4,1.1-0.5,2.5-0.5,4.3c0,0.7,0,1.3,0.1,1.7v1.4l-0.1,2.5
			c-0.1,0.8-0.1,1.6-0.1,2.5c0,1.9,0.1,3.8,0.2,5.7c0.1,2.7,0.5,5.3,1.1,7.8c0.6,2.6,1.4,4,2.5,4C80.9,73.7,81.5,73.5,82.1,73z"/>
		<path d="M94.7,75.4c-0.5-1.9-0.7-4.5-0.7-7.9l0.1-4.8c0.1-1.4,0.1-3,0.1-4.8c-0.2-0.5-0.3-0.9-0.3-1.3v-0.2
			c0.4-0.7,0.5-2.2,0.5-4.6l0.1-2.5c0-0.8,0.1-1.7,0.1-2.6c0-2.1-0.1-3.8-0.4-5c0.1-0.5,0.3-0.9,0.5-1.3c0.2-0.4,0.6-0.6,0.9-0.6
			h2.4c1,0,1.9,0.2,2.6,0.7c0.8,0.4,1.3,1.1,1.7,1.9c0.7,1.5,1.1,3.2,1.1,5.2c0,1.4,0,2.6-0.1,3.4c-0.1,1-0.2,2-0.5,2.8
			c-0.1,0.5-0.3,0.8-0.5,1.2c-0.2,0.3-0.5,0.7-0.8,1.1c-0.5,0.6-1.3,1.2-2.5,1.7c-0.5,0.3-1.1,0.5-1.8,0.7v5.7l0.1,3.4l0.1,1.7
			c0.1,2,0.2,3.7,0.2,5.1c0,0.4-0.2,0.8-0.5,1.1c-0.4,0.3-0.8,0.5-1.2,0.5L94.7,75.4z M100.4,47.2c0-1-0.1-1.8-0.2-2.4
			c-0.1-0.4-0.2-0.8-0.4-1c-0.2-0.3-0.4-0.5-0.8-0.7c-0.4-0.2-0.8-0.3-1.3-0.3c0,0-0.2-0.1-0.6-0.1v3.1c0,2.1,0,4,0.1,5.6
			c0,1.9,0,3.1,0.1,3.6v1.1v0.1C99.4,56,100.4,53,100.4,47.2z"/>
		<path d="M112.1,75.2c-0.6,0.4-1.2,0.5-1.8,0.5c-0.4,0-0.8-0.2-1.1-0.6c-0.3-0.4-0.5-0.8-0.5-1.2c0-3,0.1-7,0.4-12
			c0.2-5.3,0.3-9.3,0.3-12v-0.4c-0.2-2.3-0.3-3.9-0.3-5c0-3.4,0.6-5.1,1.9-5.1c0.4,0,0.7,0.1,0.9,0.4c0.3,0.3,0.4,0.6,0.4,0.9
			c0,0.4-0.1,1.1-0.2,2c-0.1,0.9-0.2,1.6-0.2,2c0,2.4,0,4.6,0.1,6.5c0,1.9,0.1,4,0.1,6.4c-0.2,0.5-0.3,1.3-0.3,2.3v0.6l-0.1,4.2
			c-0.1,1.3-0.1,2.7-0.1,4.3c0,2.5,0.6,3.7,1.8,3.7c0.1,0,0.2,0,0.3,0c0.2,0,0.4,0,0.7,0c0.3,0,0.7-0.1,1.2-0.1
			c1.9,0,2.9,0.5,2.9,1.6c0,0.4-0.2,0.7-0.5,0.9c-0.3,0.2-0.7,0.4-1.2,0.5C115.6,75.4,114,75.2,112.1,75.2z"/>
		<path d="M124.2,75.2c-0.4-0.3-0.6-0.7-0.6-1.2v-1.4v-1.1c0-0.3-0.1-0.7-0.1-1.1c0-0.8-0.1-1.9-0.2-3.4l-0.1-3.4
			c0-1.8,0.1-4.4,0.2-7.8c0.1-3.1,0.2-5.7,0.2-7.8c0-0.5-0.1-1.3-0.2-2.3c-0.1-1-0.2-1.8-0.2-2.3c0-2.5,0.8-3.8,2.3-3.8
			c1.2,0,2.5,0.2,4.1,0.7c1.6,0.5,2.3,1,2.3,1.7c0,0.4-0.2,0.7-0.5,1c-0.3,0.3-0.7,0.5-1.1,0.7c-1.5-0.5-2.9-0.9-4.1-1.1
			c0,0.5,0.1,1.3,0.1,2.3c0,1.4,0,2.7-0.1,3.9c-0.1,1.7-0.2,3-0.2,3.9l0.2,0.9l0.9-0.1c0.3,0,0.6-0.1,1.1-0.1c1.7,0,2.6,0.5,2.6,1.5
			c0,0.4-0.2,0.7-0.5,1c-0.3,0.3-0.7,0.4-1.2,0.4c-0.6,0-1.1,0-1.5-0.1h-1.3c0.1,0.9,0.1,2.3,0.1,4.1c0,1.8,0,3.4-0.1,4.8
			c-0.1,2.2-0.2,3.8-0.2,4.9c0,2,0,3,0.1,3l1.8-0.1c0.6,0,1.3-0.1,2.2-0.1c1.4,0,2,0.4,2,1.3c0,0.5-0.2,0.9-0.7,1.2
			c-0.4,0.3-1,0.4-1.6,0.4h-4.6C125,75.7,124.6,75.5,124.2,75.2z"/>
	</g>
	<g>
		<path d="M35.7,130c-0.3-0.4-0.4-0.9-0.4-1.4c0-8.5-0.2-15.7-0.5-21.6c-1-0.2-1.7-0.2-2.1-0.2c-1.7,0-2.9,0.1-3.6,0.4
			c0,2.3,0.2,5.7,0.5,10.3c0.3,4.9,0.5,8.3,0.5,10.4c0,0.4-0.1,0.8-0.4,1.1c-0.2,0.3-0.5,0.5-0.9,0.5c-0.5,0-1-0.9-1.5-2.8
			c-0.7-2.8-1.2-8.6-1.6-17.4c-0.3-6-0.4-12.4-0.4-19.3c0-1.3-0.1-3.1-0.1-5.4c0-0.7,0.3-1.1,1-1.1c0.4,0,0.8,0.1,1.3,0.3
			c0.4,0.2,0.7,0.4,0.9,0.7c-0.2,1.3-0.2,2.8-0.2,4.6c0,1.7,0.1,3.8,0.2,6.2c0.1,2.8,0.2,4.9,0.2,6.4v1.1c0,0.3-0.1,0.7-0.1,1.2
			c0,0.4,0,0.9,0.1,1.6c0.2,0,0.6,0,1.2-0.1c0.6,0,1.1-0.1,1.7-0.2c1.3-0.1,2.3-0.2,3-0.2c0-3.5,0-6.8-0.1-9.8l-0.1-10.2v-1.6
			c0.5,0,1,0.1,1.4,0.3c0.4,0.2,0.7,0.4,0.9,0.7c0.4,0.4,0.6,1.2,0.7,2.3v1.4c0,3.5,0.2,10.2,0.6,20.1c0.4,9,0.5,15.7,0.5,20.2
			c0,0.6-0.2,1.1-0.5,1.5c-0.3,0.4-0.8,0.7-1.3,0.7C36.4,130.6,36,130.4,35.7,130z"/>
		<path d="M50.7,129.8c-0.9-0.7-1.6-1.6-2.2-2.7c-1.2-2.5-1.9-5.2-2.2-8.1c-0.4-2.8-0.5-5.4-0.5-8c0-0.5,0-0.9,0.1-1.2v-1.1
			c0-0.2,0-0.3-0.1-0.3v-1.1l0.1-4.3c0-1.3,0.2-3.4,0.5-6.2c0.2-2,0.7-3.8,1.4-5.7c0.3-0.8,0.6-1.4,1.1-1.9c0.4-0.4,1-0.6,1.5-0.6
			c1.6,0,3.1,0.3,4.4,0.9c1.3,0.6,2.4,1.4,3.3,2.5c0.8,1,1.5,2.3,2.1,3.8c0.6,1.5,1,3.1,1.2,4.7c0.2,1.7,0.4,3.5,0.4,5.4v0.5
			c0,1.3,0,2.4,0.1,3.4l0.1,3.5c0,11.7-2.7,17.6-8.2,17.6C52.5,130.8,51.5,130.5,50.7,129.8z M55.4,127.4c0.6-0.6,1.1-1.4,1.4-2.4
			c0.8-2.1,1.2-4.3,1.4-6.7c0.2-2.1,0.3-3.9,0.3-5.4c0-1.8-0.1-4.2-0.4-7.2c-0.2-3.1-0.4-5.5-0.4-7v-1.1c-0.1-1.5-0.6-2.9-1.6-4
			c-1-1.1-2.1-1.7-3.5-1.7c-1.4,0-2.3,0.8-2.7,2.4c-0.4,1.3-0.6,2.9-0.6,4.9c0,0.8,0,1.4,0.1,2v1.6l-0.1,2.8
			c-0.1,0.9-0.1,1.8-0.1,2.8c0,2.2,0.1,4.4,0.2,6.5c0.2,3.1,0.6,6,1.2,8.9c0.7,3,1.6,4.5,2.9,4.5C54.1,128.3,54.7,128,55.4,127.4z"
			/>
		<path d="M91.1,129v-3.9v-3.9c0-2-0.1-4.7-0.4-8c-0.3-3.7-0.5-6.2-0.5-7.6l0.1-3.8c0.1-1.1,0.1-2.3,0.1-3.7c-0.2,0.5-0.8,3.3-2,8.4
			c-1.2,4.9-2.4,9.5-3.7,13.7c-1.2,4-2.2,6-3,6s-1.4-0.2-1.9-0.7c-0.5-0.5-0.7-1.1-0.7-1.9c0-1.8-0.7-5.6-2.2-11.4
			s-2.8-10.6-3.9-14.3l-0.4,6.9c-0.3,5.8-0.5,10.7-0.7,14.5c-0.1,3.7-0.1,6.3-0.1,7.7c0,0.3,0,0.6,0.1,0.9v0.9
			c0,0.7-0.1,1.2-0.4,1.6c-0.3,0.3-0.8,0.5-1.6,0.5c-0.4,0-0.8-0.2-1.2-0.5c-0.4-0.3-0.5-0.6-0.5-1c0-4.2,0.3-10.4,0.9-18.7
			c0.6-8.3,0.9-14.5,0.9-18.7c-0.2-0.4-0.4-0.8-0.4-1.2c0-0.5,0.2-0.9,0.7-1.1c0.5-0.3,1-0.4,1.7-0.4c0.5,0,1.5,1.9,2.9,5.7
			c1.4,3.8,2.8,8.2,4.3,13c1.4,4.8,2.3,8.3,2.7,10.5c0.3-1.1,0.6-2.1,0.8-3.1l0.4-1.5c1.3-5.7,2.6-10.8,3.9-15.4
			c0.8-2.8,1.5-5,2.3-6.6c0.7-1.7,1.4-2.6,2-2.6c0.6,0,1.1,0.2,1.6,0.5c0.5,0.3,0.7,0.7,0.7,1.2c0,2.9,0.1,7.3,0.4,13.2
			c0.3,5.5,0.4,9.7,0.4,12.7l-0.1,3.2l-0.1,3.2c0,0.5,0.1,1.2,0.2,2.2l0.2,2.1c0,0.4,0.1,0.7,0.1,0.9c0,0.2,0,0.3,0,0.4
			c0.2,0.5,0.3,0.9,0.3,1.2c0,0.7-0.2,1.3-0.6,1.8c-0.4,0.5-0.9,0.8-1.5,0.8C91.8,132.8,91.1,131.6,91.1,129z"/>
		<path d="M104,129.9c-0.4-0.4-0.7-0.8-0.7-1.3V127v-1.2c0-0.4-0.1-0.8-0.1-1.3c0-0.9-0.1-2.2-0.2-3.9l-0.1-3.9c0-2,0.1-5,0.2-8.9
			c0.2-3.5,0.2-6.5,0.2-8.9c0-0.6-0.1-1.4-0.2-2.6c-0.1-1.2-0.2-2-0.2-2.6c0-2.9,0.9-4.3,2.6-4.3c1.3,0,2.9,0.3,4.7,0.8
			c1.8,0.5,2.7,1.2,2.7,1.9c0,0.4-0.2,0.8-0.5,1.1c-0.3,0.3-0.8,0.6-1.3,0.8c-1.7-0.6-3.3-1-4.6-1.2c0,0.6,0.1,1.5,0.1,2.6
			c0,1.6,0,3.1-0.1,4.4c-0.1,2-0.2,3.4-0.2,4.4l0.2,1l1-0.1c0.3,0,0.7-0.1,1.2-0.1c2,0,2.9,0.6,2.9,1.7c0,0.4-0.2,0.8-0.5,1.1
			c-0.4,0.3-0.8,0.5-1.4,0.5c-0.7,0-1.3,0-1.7-0.1h-1.5c0.1,1.1,0.1,2.6,0.1,4.6c0,2,0,3.9-0.1,5.5c-0.1,2.5-0.2,4.3-0.2,5.6
			c0,2.3,0,3.4,0.1,3.4l2-0.1c0.7,0,1.5-0.1,2.5-0.1c1.5,0,2.3,0.5,2.3,1.5c0,0.6-0.3,1-0.8,1.3c-0.5,0.3-1.1,0.5-1.9,0.5h-5.2
			C105,130.4,104.5,130.3,104,129.9z"/>
	</g>
	<g>
		<path d="M124.8,128.9c0-4.9-0.2-12.8-0.7-23.6c-0.4-10.8-0.9-16.5-1.2-17.1c0-1.2,0.5-2.1,1.4-2.7c0.3-0.2,0.8-0.4,1.4-0.5
			c0.6-0.1,1.2-0.2,1.7-0.2c0.3,0,0.8-0.1,1.6-0.1c1,0,1.7,0.2,2.1,0.5c0.4,0.3,0.6,0.9,0.6,1.7c0,0.5-0.2,0.8-0.5,1.1
			c-0.3,0.2-0.8,0.3-1.3,0.3l-0.6-0.1h-0.9c-1.2,0-1.8,0.2-1.8,0.7c0,2.2,0.1,5.1,0.4,8.7c0.3,3,0.4,5.8,0.5,8.5
			c0.3-0.1,0.9-0.2,1.7-0.4c0.8-0.2,1.5-0.3,1.9-0.3c0.5,0,0.9,0.2,1.2,0.6c0.3,0.4,0.5,0.9,0.5,1.4c0,0.6-0.3,1-0.8,1.3
			c-0.1,0-0.3,0.1-0.6,0.3c-0.3,0.1-0.7,0.2-1.2,0.3c-0.4,0-1,0.1-1.9,0.2h-0.7c0,2.5,0.2,6,0.6,10.4c0.4,4.6,0.6,8,0.6,10.4
			l-0.1,0.3l-0.1,0.1c0,0.2,0.1,0.4,0.1,0.8c0,0.6-0.2,1-0.6,1.3c-0.4,0.3-0.9,0.5-1.5,0.5C125.5,133,124.8,131.6,124.8,128.9z"/>
		<path d="M144.7,133.1c-0.9-0.7-1.7-1.6-2.3-2.8c-1.2-2.6-2-5.4-2.3-8.5c-0.4-2.9-0.6-5.7-0.6-8.3c0-0.5,0-0.9,0.1-1.3V111
			c0-0.2,0-0.3-0.1-0.3v-1.1l0.1-4.5c0-1.4,0.2-3.5,0.5-6.5c0.2-2,0.7-4,1.5-5.9c0.3-0.9,0.7-1.5,1.1-1.9c0.5-0.4,1-0.7,1.6-0.7
			c1.7,0,3.2,0.3,4.6,0.9c1.4,0.6,2.5,1.5,3.4,2.6c0.8,1.1,1.6,2.4,2.2,3.9s1,3.2,1.3,4.9c0.3,1.8,0.4,3.7,0.4,5.7v0.5
			c0,1.3,0,2.5,0.1,3.6l0.1,3.6c0,12.2-2.8,18.3-8.5,18.3C146.6,134.1,145.6,133.8,144.7,133.1z M149.6,130.5
			c0.6-0.6,1.1-1.5,1.5-2.5c0.8-2.2,1.3-4.5,1.5-7c0.2-2.2,0.3-4,0.3-5.6c0-1.9-0.1-4.4-0.4-7.5c-0.3-3.3-0.4-5.7-0.4-7.3v-1.1
			c-0.1-1.6-0.6-3-1.6-4.2c-1-1.2-2.2-1.8-3.7-1.8c-1.4,0-2.4,0.8-2.9,2.5c-0.4,1.3-0.6,3-0.6,5.1c0,0.8,0,1.5,0.1,2v1.7l-0.1,2.9
			c-0.1,0.9-0.1,1.9-0.1,2.9c0,2.3,0.1,4.6,0.2,6.8c0.2,3.2,0.6,6.3,1.3,9.3c0.7,3.1,1.7,4.7,3,4.7
			C148.2,131.4,148.9,131.1,149.6,130.5z"/>
		<path d="M167.6,133.1c-0.9-0.7-1.7-1.6-2.3-2.8c-1.2-2.6-2-5.4-2.3-8.5c-0.4-2.9-0.6-5.7-0.6-8.3c0-0.5,0-0.9,0.1-1.3V111
			c0-0.2,0-0.3-0.1-0.3v-1.1l0.1-4.5c0-1.4,0.2-3.5,0.5-6.5c0.2-2,0.7-4,1.5-5.9c0.3-0.9,0.7-1.5,1.1-1.9c0.5-0.4,1-0.7,1.6-0.7
			c1.7,0,3.2,0.3,4.6,0.9c1.4,0.6,2.5,1.5,3.4,2.6c0.8,1.1,1.6,2.4,2.2,3.9c0.6,1.6,1,3.2,1.3,4.9c0.3,1.8,0.4,3.7,0.4,5.7v0.5
			c0,1.3,0,2.5,0.1,3.6l0.1,3.6c0,12.2-2.8,18.3-8.5,18.3C169.5,134.1,168.5,133.8,167.6,133.1z M172.5,130.5
			c0.6-0.6,1.1-1.5,1.5-2.5c0.8-2.2,1.3-4.5,1.5-7c0.2-2.2,0.3-4,0.3-5.6c0-1.9-0.1-4.4-0.4-7.5c-0.3-3.3-0.4-5.7-0.4-7.3v-1.1
			c-0.1-1.6-0.6-3-1.6-4.2c-1-1.2-2.2-1.8-3.7-1.8c-1.4,0-2.4,0.8-2.9,2.5c-0.4,1.3-0.6,3-0.6,5.1c0,0.8,0,1.5,0.1,2v1.7l-0.1,2.9
			c-0.1,0.9-0.1,1.9-0.1,2.9c0,2.3,0.1,4.6,0.2,6.8c0.2,3.2,0.6,6.3,1.3,9.3c0.7,3.1,1.7,4.7,3,4.7
			C171.2,131.4,171.9,131.1,172.5,130.5z"/>
		<path d="M186.5,124.9l0.1-10.1c0-3,0.1-6.3,0.1-10c0-1.4-0.1-3.5-0.4-6.3c-0.2-3.1-0.3-5-0.3-5.7c0-0.6,0.2-1,0.7-1.5
			c0.5-0.4,1-0.6,1.5-0.6c1.5,0,2.9,0.3,4.3,1c1.4,0.7,2.6,1.6,3.7,2.8c2.3,2.6,3.7,5.4,4.5,8.5c0.4,1.6,0.6,3.1,0.6,4.6
			c0,0.6,0,1.1-0.1,1.5l-0.1,1.7v3.5c0,2.7-0.1,4.9-0.3,6.4c-0.3,2.1-0.7,4-1.5,5.7c-0.9,1.8-2.1,3.4-3.7,4.8
			c-0.8,0.6-1.7,1.3-2.9,1.9h-4.6C187.1,133.3,186.5,130.5,186.5,124.9z M193.3,129.4c0.7-0.4,1.3-1.1,1.8-1.8
			c0.4-0.7,0.8-1.5,1.2-2.6c0.4-1,0.6-2,0.8-3c0.4-1.9,0.6-3.9,0.7-5.9c0-0.5,0.1-1.3,0.1-2.2c0-12.8-2.5-19.5-7.5-20.1
			c-0.3,1.9-0.4,4.1-0.4,6.6c0,2.7,0.2,7.3,0.5,14c0.3,5.9,0.4,10.6,0.4,14.1v1.5C191.8,130,192.6,129.8,193.3,129.4z"/>
	</g>
	<g>
		<path class="st0" d="M3.1,23.4c-0.5-0.3-0.9-0.6-1.2-1.1c-0.3-0.4-0.6-1-0.8-1.6c-0.2-0.7-0.4-1.3-0.5-2.1
			c-0.2-1.2-0.4-2.8-0.5-4.7c0-0.5,0-1.3,0-2.4V9.6C0,9,0,8.5,0,7.9C0,6.7,0.1,5.7,0.2,5C0.2,4.7,0.2,4.4,0.2,4.1
			c0-1.2,0.5-2.2,1.4-3S3.6,0,5,0c0.5,0,1,0.1,1.5,0.4c0.4,0.3,0.7,0.6,0.7,1.1c0,0.2-0.1,0.4-0.2,0.5C6.7,2.1,6.5,2.2,6.3,2.2
			c-0.2,0-0.4,0-0.7-0.1C5.4,2,5.2,1.9,5.2,1.8H4.8V1.7C4,1.7,3.4,1.9,2.9,2.2C2.5,2.5,2.2,2.9,2,3.5C2,3.8,1.9,4,1.9,4.4
			c0,0.3-0.1,0.7-0.1,0.9c0,0.2,0,0.5,0,1l0.1,1.1l0,1c0,0.3,0,0.7-0.1,1.1c-0.1,0.5-0.2,0.9-0.2,1.1v0.7c0,0.8,0,1.9,0.1,3.3
			c0,1.2,0.2,2.3,0.4,3.5c0.2,1.1,0.5,2,1,2.7c0.5,0.8,1.1,1.2,2,1.2c0.3,0,0.8-0.2,1.3-0.5c0.5-0.4,0.9-0.5,1.2-0.5
			c0.3,0,0.6,0.2,0.9,0.5c0,0.8-0.3,1.3-0.9,1.7c-0.5,0.4-1.2,0.6-1.9,0.7c-0.4,0-0.7,0.1-1,0.1C4.1,23.8,3.6,23.7,3.1,23.4z"/>
		<path class="st0" d="M12.9,23.4c-0.4-0.3-0.8-0.8-1.1-1.4c-0.6-1.2-1-2.6-1.1-4.1c-0.2-1.4-0.3-2.7-0.3-4c0-0.2,0-0.4,0-0.6v-0.5
			c0-0.1,0-0.2,0-0.2v-0.5l0-2.1c0-0.6,0.1-1.7,0.2-3.1c0.1-1,0.3-1.9,0.7-2.8c0.1-0.4,0.3-0.7,0.5-0.9c0.2-0.2,0.5-0.3,0.8-0.3
			c0.8,0,1.5,0.1,2.2,0.4c0.7,0.3,1.2,0.7,1.6,1.2c0.4,0.5,0.8,1.1,1,1.9c0.3,0.7,0.5,1.5,0.6,2.4c0.1,0.9,0.2,1.8,0.2,2.7v0.2
			c0,0.6,0,1.2,0,1.7l0,1.7c0,5.9-1.4,8.8-4.1,8.8C13.8,23.9,13.3,23.7,12.9,23.4z M15.3,22.2c0.3-0.3,0.5-0.7,0.7-1.2
			c0.4-1,0.6-2.2,0.7-3.4c0.1-1,0.2-1.9,0.2-2.7c0-0.9-0.1-2.1-0.2-3.6c-0.1-1.6-0.2-2.7-0.2-3.5V7.3c0-0.8-0.3-1.4-0.8-2
			c-0.5-0.6-1.1-0.9-1.8-0.9c-0.7,0-1.1,0.4-1.4,1.2C12.3,6.2,12.2,7,12.2,8c0,0.4,0,0.7,0,1v0.8l-0.1,1.4c0,0.4-0.1,0.9-0.1,1.4
			c0,1.1,0,2.2,0.1,3.3c0.1,1.5,0.3,3,0.6,4.5c0.3,1.5,0.8,2.3,1.4,2.3C14.6,22.6,14.9,22.5,15.3,22.2z"/>
		<path class="st0" d="M29.6,23.2c-0.1-0.1-0.2-0.4-0.3-0.7l-0.2-0.6v-0.1v-0.1c0-0.7-0.7-3-2.1-6.9s-2.5-6.8-3.3-8.7v15.3l0.1,0.2
			c0,0,0.1,0.1,0.1,0.2c0.1,0.1,0.1,0.2,0.1,0.3c0,0.3-0.1,0.5-0.3,0.7c-0.2,0.2-0.4,0.3-0.7,0.3c-0.7,0-1-0.6-1-1.9l0-5.2
			c0-1.6,0-3.3,0-5.2c0-0.7,0-1.6,0.1-2.8c0.1-1.3,0.1-2.2,0.1-2.8c0-1,0.4-1.7,1.1-2.3v0.2c0.1,0,0.2-0.1,0.2-0.1
			c0.5,0,1.1,0.8,1.8,2.4c0.6,1.3,1.1,2.7,1.5,4.1c0.5,1.4,1.1,3.5,1.8,6.2L29,17c0.5,1.6,0.8,2.8,1.1,3.5c0.4-4.4,0.6-9.5,0.6-15.5
			V4.6c0-0.1,0-0.3,0-0.4c0-0.6,0.2-0.9,0.7-0.9c0.3,0,0.5,0.1,0.7,0.3c0.2,0.2,0.2,0.5,0.2,0.9v2.3c0,3.1-0.2,6.5-0.4,10.2
			c-0.2,3.7-0.4,5.7-0.7,6.2c-0.6,0.2-1,0.2-1.1,0.2C29.9,23.4,29.7,23.3,29.6,23.2z"/>
		<path class="st0" d="M44.2,23.2c-0.1-0.1-0.2-0.4-0.3-0.7l-0.2-0.6v-0.1v-0.1c0-0.7-0.7-3-2.1-6.9c-1.4-3.9-2.5-6.8-3.3-8.7v15.3
			l0.1,0.2c0,0,0.1,0.1,0.1,0.2c0.1,0.1,0.1,0.2,0.1,0.3c0,0.3-0.1,0.5-0.3,0.7c-0.2,0.2-0.4,0.3-0.7,0.3c-0.7,0-1-0.6-1-1.9l0-5.2
			c0-1.6,0-3.3,0-5.2c0-0.7,0-1.6,0.1-2.8c0.1-1.3,0.1-2.2,0.1-2.8c0-1,0.4-1.7,1.1-2.3v0.2c0.1,0,0.2-0.1,0.2-0.1
			c0.5,0,1.1,0.8,1.8,2.4c0.6,1.3,1.1,2.7,1.5,4.1c0.5,1.4,1.1,3.5,1.8,6.2l0.3,1.1c0.5,1.6,0.8,2.8,1.1,3.5
			c0.4-4.4,0.6-9.5,0.6-15.5V4.6c0-0.1,0-0.3,0-0.4c0-0.6,0.2-0.9,0.7-0.9c0.3,0,0.5,0.1,0.7,0.3c0.2,0.2,0.2,0.5,0.2,0.9v2.3
			c0,3.1-0.2,6.5-0.4,10.2c-0.2,3.7-0.4,5.7-0.7,6.2c-0.6,0.2-1,0.2-1.1,0.2C44.5,23.4,44.3,23.3,44.2,23.2z"/>
		<path class="st0" d="M51.7,23.4c-0.2-0.2-0.3-0.4-0.4-0.7V22v-0.6c0-0.2,0-0.4,0-0.6c0-0.4,0-1.1-0.1-2l-0.1-2c0-1,0-2.5,0.1-4.5
			c0.1-1.8,0.1-3.3,0.1-4.5c0-0.3,0-0.7-0.1-1.3c-0.1-0.6-0.1-1-0.1-1.3c0-1.4,0.4-2.2,1.3-2.2c0.7,0,1.4,0.1,2.3,0.4
			c0.9,0.3,1.3,0.6,1.3,0.9c0,0.2-0.1,0.4-0.3,0.6c-0.2,0.2-0.4,0.3-0.6,0.4c-0.9-0.3-1.6-0.5-2.3-0.6c0,0.3,0,0.7,0,1.3
			c0,0.8,0,1.5,0,2.2c-0.1,1-0.1,1.7-0.1,2.2l0.1,0.5l0.5,0c0.2,0,0.4,0,0.6,0c1,0,1.5,0.3,1.5,0.9c0,0.2-0.1,0.4-0.3,0.6
			c-0.2,0.2-0.4,0.2-0.7,0.2c-0.4,0-0.7,0-0.9-0.1h-0.8c0,0.5,0.1,1.3,0.1,2.3s0,1.9,0,2.7c-0.1,1.2-0.1,2.2-0.1,2.8
			c0,1.1,0,1.7,0.1,1.7l1,0c0.3,0,0.8,0,1.3,0c0.8,0,1.2,0.2,1.2,0.7c0,0.3-0.1,0.5-0.4,0.7c-0.3,0.2-0.6,0.2-0.9,0.2h-2.6
			C52.1,23.7,51.9,23.6,51.7,23.4z"/>
		<path class="st0" d="M62.3,23.5c-0.5-0.1-0.9-0.3-1.1-0.4c-1.4-0.9-2-3.3-2-7.2v-0.8v-0.9v-0.7c0-0.8,0-1.5,0-2.2
			c0-0.6,0.1-1.3,0.1-2.1c0.1-0.8,0.2-1.4,0.3-1.9c0.1-0.5,0.3-1.1,0.6-1.7c0.2-0.6,0.5-1,0.9-1.4c0.4-0.3,0.8-0.6,1.4-0.8
			C63,3.1,63.6,3,64.4,3c0.3,0,0.5,0.1,0.7,0.2c0.2,0.1,0.2,0.3,0.2,0.5c0,0.2-0.1,0.4-0.2,0.5c-0.1,0.2-0.3,0.3-0.5,0.3h-1.4
			c-0.4,0-0.8,0.3-1.1,0.8c-0.3,0.5-0.5,1.2-0.6,2c-0.3,1.5-0.4,2.7-0.4,3.7v0.2L61,14.1c0,0.9-0.1,1.9-0.1,3c0,0.8,0,1.4,0.1,1.9
			c0.1,0.7,0.3,1.3,0.5,1.8c0.2,0.5,0.7,0.9,1.3,1.2c0.3,0.1,0.6,0.2,1,0.2c0.2,0,0.4-0.1,0.7-0.2c0.3,0,0.5,0.1,0.7,0.2
			c0.2,0.1,0.3,0.3,0.3,0.5c0,0.8-0.6,1.2-1.7,1.2C63.3,23.7,62.8,23.7,62.3,23.5z"/>
		<path class="st0" d="M69.9,22.8l0-1.2c0-0.3,0-0.7,0-1.2l0-1c-0.1-0.2-0.2-2.5-0.5-6.7C69.1,8.5,69,5.8,69,4.6
			c-1.2,0-1.9-0.2-2.3-0.4c-0.2-0.2-0.3-0.3-0.3-0.5c0-0.2,0.1-0.3,0.3-0.4C66.9,3.1,67.1,3,67.3,3c0.6,0,1.3,0,2.1,0.1
			c0.8,0.1,1.5,0.2,2.1,0.2h0.2H72c0.6,0,0.9,0.2,0.9,0.7c0,0.2-0.1,0.4-0.3,0.6c-0.2,0.2-0.4,0.2-0.7,0.2c-0.2,0-0.4,0-0.8-0.1
			l-0.6-0.1l0,0.2l0,0.2c0,1.8,0.2,4.7,0.5,8.7c0.3,3.7,0.5,6.6,0.5,8.7c0,0.2-0.1,0.5-0.3,0.6c-0.2,0.2-0.5,0.3-0.7,0.3L69.9,22.8z
			"/>
		<path class="st0" d="M74.9,22.4c0-0.5,0.3-0.7,0.9-0.7h0.3l0.3,0c0.2,0,0.3-0.1,0.3-0.2c0.1-0.1,0.1-0.3,0.1-0.5
			c0-0.3,0-0.9-0.1-1.6c-0.1-0.5-0.1-1.4-0.2-2.6c-0.2-3.1-0.3-5.5-0.3-7c0-0.6,0-1.1,0-1.6l0-1.6c0-0.7,0-1.2-0.1-1.7
			C76,5,75.7,5,75.6,5c-0.5,0-0.7-0.2-0.7-0.7c0-0.2,0.2-0.5,0.5-0.6c0.3-0.2,0.7-0.3,1.2-0.4C77.3,3.1,78,3,78.6,3
			c0.2,0,0.5,0.1,0.6,0.3s0.3,0.4,0.3,0.6s-0.1,0.4-0.2,0.6c-0.1,0.2-0.3,0.2-0.5,0.2c-0.1,0-0.2,0-0.3,0h-0.2c-0.2,0-0.4,0-0.4,0.1
			c-0.1,0.1-0.1,0.3-0.1,0.5c0,2,0.1,4.9,0.4,8.9c0,0.7,0.1,1.8,0.2,3.2c0.1,0.9,0.2,1.9,0.2,2.9v1.2c0.1,0,0.3,0,0.6,0
			c0.9,0,1.3,0.4,1.3,1.1v0.2l-0.8,0.5c0,0-0.1,0-0.2,0c-0.1,0-0.3,0-0.6,0c-0.7,0-1.1,0.1-1.3,0.1C75.7,23.3,74.9,23,74.9,22.4z"/>
		<path class="st0" d="M90.7,23.2c-0.1-0.1-0.2-0.4-0.3-0.7l-0.2-0.6v-0.1v-0.1c0-0.7-0.7-3-2.1-6.9c-1.4-3.9-2.5-6.8-3.3-8.7v15.3
			l0.1,0.2c0,0,0.1,0.1,0.1,0.2c0.1,0.1,0.1,0.2,0.1,0.3c0,0.3-0.1,0.5-0.3,0.7c-0.2,0.2-0.4,0.3-0.7,0.3c-0.7,0-1-0.6-1-1.9l0-5.2
			c0-1.6,0-3.3,0-5.2c0-0.7,0-1.6,0.1-2.8c0.1-1.3,0.1-2.2,0.1-2.8c0-1,0.4-1.7,1.1-2.3v0.2c0.1,0,0.2-0.1,0.2-0.1
			c0.5,0,1.1,0.8,1.8,2.4C87,6.9,87.6,8.3,88,9.7c0.5,1.4,1.1,3.5,1.8,6.2l0.3,1.1c0.5,1.6,0.8,2.8,1.1,3.5
			c0.4-4.4,0.6-9.5,0.6-15.5V4.6c0-0.1,0-0.3,0-0.4c0-0.6,0.2-0.9,0.7-0.9c0.3,0,0.5,0.1,0.7,0.3c0.2,0.2,0.2,0.5,0.2,0.9v2.3
			c0,3.1-0.2,6.5-0.4,10.2c-0.2,3.7-0.4,5.7-0.7,6.2c-0.6,0.2-1,0.2-1.1,0.2C91,23.4,90.8,23.3,90.7,23.2z"/>
		<path class="st0" d="M99.9,23.2c-0.5-0.2-0.9-0.5-1.2-0.8c-0.3-0.3-0.5-0.7-0.7-1.3c-0.2-0.5-0.4-1.1-0.5-1.6
			c-0.1-0.4-0.2-0.9-0.2-1.7c-0.1-0.7-0.1-1.4-0.1-1.9v-1.8V13c0-1.2,0-2.1,0.1-2.9c0-0.9,0.2-1.9,0.4-2.9c0.2-0.9,0.5-1.7,0.9-2.4
			c0.4-0.7,1-1.2,1.8-1.4c0.4-0.1,0.8-0.2,1.3-0.2c0.9,0,1.3,0.3,1.3,0.8c0,0.2-0.1,0.4-0.3,0.6c-0.2,0.2-0.4,0.2-0.7,0.2
			c-0.1,0-0.2,0-0.3,0c-0.1,0-0.2,0-0.3,0c-0.3,0-0.7,0.2-0.9,0.5c-0.3,0.4-0.5,0.9-0.7,1.5C99.4,8,99.2,9.4,99,10.9
			c-0.1,1.4-0.1,2.4-0.1,3.1c0,0.7,0,1.6,0.1,2.8c0.1,1.1,0.3,2.1,0.5,2.9c0.1,0.5,0.3,0.9,0.5,1.2c0.2,0.3,0.4,0.5,0.7,0.7
			c0.3,0.2,0.7,0.3,1.1,0.3c1,0,1.5-1.6,1.5-4.9v-1.4c-0.1-0.1-0.4-0.1-0.7-0.1h-0.3H102c-0.7,0-1.1-0.2-1.1-0.7
			c0-0.3,0.1-0.5,0.3-0.7c0.2-0.2,0.4-0.2,0.7-0.2v0h0.4c1.8,0,2.7,0.3,2.7,0.9c0,0.2-0.1,0.5-0.2,1.1c-0.1,0.5-0.2,0.9-0.2,1.1
			c0,0.3,0,0.9,0.1,1.6l0.1,1.6c0,1-0.3,1.7-1,2.3c-0.7,0.6-1.5,0.8-2.5,0.8C100.9,23.5,100.4,23.4,99.9,23.2z"/>
	</g>
</g>
</svg>
