<svg id="Layer_1" data-name="Layer 1" xmlns="http://www.w3.org/2000/svg" viewBox="0 0 72.02 105.92"><defs><style>.cls-1{fill:#fff;}</style></defs><title>slogan-white-01</title><path class="cls-1" d="M28.47,49.26a1.33,1.33,0,0,1-.21-.76l.06-5.37c.07-2.61.1-4.62.1-6.05a59.74,59.74,0,0,0-.83-11.43,1.41,1.41,0,0,1,1.21-.74,4.49,4.49,0,0,1,2.16.53,4.81,4.81,0,0,1,1.62,1.42A7.33,7.33,0,0,1,33.83,31a8.78,8.78,0,0,1-1,4.29,7.13,7.13,0,0,1-3,2.94l.06,3.23.07,1.7c0,.36,0,.89,0,1.57.06,1.43.09,2.59.09,3.49a1.63,1.63,0,0,1-.25,1,.94.94,0,0,1-.8.35A.64.64,0,0,1,28.47,49.26Zm3.13-15a6.88,6.88,0,0,0,.6-2.93v0A14.57,14.57,0,0,0,32,29.43a2.56,2.56,0,0,0-.36-.77c-.17-.26-.26-.41-.28-.45a5.82,5.82,0,0,0-1.19-1l-.83-.61c0,1.09.06,2.77.19,5.06l.19,5A7.83,7.83,0,0,0,31.6,34.24Z" transform="translate(-13.68 -9.16)"/><path class="cls-1" d="M37.91,49.53a1,1,0,0,1-.37-.71V47.35a6.45,6.45,0,0,1,0-.67c0-.45,0-1.13-.1-2l-.06-2.05c0-1,0-2.6.1-4.67.08-1.86.12-3.42.12-4.67q0-.45-.09-1.35a13.23,13.23,0,0,1-.1-1.34q0-2.28,1.35-2.28a8.67,8.67,0,0,1,2.45.42c.92.28,1.39.61,1.39,1a.81.81,0,0,1-.27.59,2,2,0,0,1-.66.44,12.58,12.58,0,0,0-2.43-.64c0,.32,0,.78,0,1.37,0,.86,0,1.62,0,2.31-.07,1-.1,1.79-.1,2.3l.1.51.51,0a5.6,5.6,0,0,1,.64,0c1,0,1.54.3,1.54.9a.75.75,0,0,1-.29.59,1.12,1.12,0,0,1-.74.24,4.14,4.14,0,0,1-.89-.07h-.81c0,.56.07,1.37.07,2.44s0,2,0,2.88c-.07,1.3-.1,2.27-.1,2.91a10,10,0,0,0,.06,1.79l1.06,0c.36,0,.8,0,1.31,0,.81,0,1.22.26,1.22.77a.75.75,0,0,1-.4.69,1.87,1.87,0,0,1-1,.24H38.66A1.12,1.12,0,0,1,37.91,49.53Z" transform="translate(-13.68 -9.16)"/><path class="cls-1" d="M48.49,49.48a4,4,0,0,1-1.15-1.42,12.43,12.43,0,0,1-1.15-4.26,30.66,30.66,0,0,1-.29-4.19,5.6,5.6,0,0,1,0-.64v-.58c0-.11,0-.16,0-.16v-.58l0-2.24c0-.68.11-1.77.26-3.26a10.93,10.93,0,0,1,.73-3,2.43,2.43,0,0,1,.58-1,1.13,1.13,0,0,1,.8-.33,5.49,5.49,0,0,1,2.3.46,4.76,4.76,0,0,1,1.73,1.3,7.22,7.22,0,0,1,1.09,2,11.57,11.57,0,0,1,.64,2.48,19.76,19.76,0,0,1,.19,2.85v.25q0,1,0,1.8l0,1.82Q54.32,50,50,50A2.52,2.52,0,0,1,48.49,49.48ZM51,48.2a2.89,2.89,0,0,0,.74-1.26,12.52,12.52,0,0,0,.74-3.53c.1-1.08.16-2,.16-2.81,0-1-.08-2.22-.23-3.78s-.19-2.87-.19-3.68v-.58a3.47,3.47,0,0,0-.81-2.11,2.34,2.34,0,0,0-1.85-.9,1.46,1.46,0,0,0-1.44,1.25,8.64,8.64,0,0,0-.32,2.56,10,10,0,0,0,0,1v.86l-.07,1.47c0,.45-.06.94-.06,1.48q0,1.72.09,3.42a28.81,28.81,0,0,0,.64,4.68c.35,1.58.85,2.37,1.51,2.37A1.49,1.49,0,0,0,51,48.2Z" transform="translate(-13.68 -9.16)"/><path class="cls-1" d="M58.51,49.63a20.62,20.62,0,0,1-.42-4.71l.07-2.85q.06-1.27.06-2.85a2,2,0,0,1-.19-.8v-.09a7.4,7.4,0,0,0,.32-2.76l0-1.47c0-.47,0-1,0-1.57a13.76,13.76,0,0,0-.25-3,2.1,2.1,0,0,1,.32-.78.66.66,0,0,1,.54-.34h1.41a3.08,3.08,0,0,1,1.57.4A2.57,2.57,0,0,1,63,30a7,7,0,0,1,.64,3.1c0,.86,0,1.53,0,2a6.75,6.75,0,0,1-.32,1.7,2,2,0,0,1-.27.69,6.07,6.07,0,0,1-.5.65,4.14,4.14,0,0,1-1.47,1,5.11,5.11,0,0,1-1.09.41V43l.07,2,.06,1c.09,1.2.13,2.21.13,3a.84.84,0,0,1-.32.66,1.13,1.13,0,0,1-.74.27ZM61.9,32.85a8.8,8.8,0,0,0-.09-1.44,2,2,0,0,0-.26-.62,1.2,1.2,0,0,0-.48-.4,1.55,1.55,0,0,0-.77-.2s-.12,0-.35,0V32q0,1.89,0,3.36c0,1.11,0,1.83,0,2.17v.74Q61.9,38,61.9,32.85Z" transform="translate(-13.68 -9.16)"/><path class="cls-1" d="M68.88,49.53a2,2,0,0,1-1.09.32.8.8,0,0,1-.65-.34,1.12,1.12,0,0,1-.28-.72q0-2.68.23-7.17.19-4.77.19-7.14v-.22c-.13-1.35-.19-2.35-.19-3,0-2,.37-3,1.12-3a.82.82,0,0,1,.8.8,10.66,10.66,0,0,1-.1,1.22,11.79,11.79,0,0,0-.09,1.21c0,1.43,0,2.72,0,3.88s0,2.41,0,3.84a4.32,4.32,0,0,0-.16,1.34v.39l-.06,2.52c0,.75-.07,1.61-.07,2.57,0,1.47.36,2.2,1.06,2.2h.21l.4,0c.19,0,.44,0,.73,0,1.16,0,1.73.32,1.73,1a.67.67,0,0,1-.29.55,1.52,1.52,0,0,1-.7.28A9.32,9.32,0,0,0,68.88,49.53Z" transform="translate(-13.68 -9.16)"/><path class="cls-1" d="M76.1,49.53a1,1,0,0,1-.37-.71V47.35a6.45,6.45,0,0,1,0-.67c0-.45,0-1.13-.1-2l-.06-2.05c0-1,0-2.6.1-4.67.08-1.86.12-3.42.12-4.67q0-.45-.09-1.35a13.23,13.23,0,0,1-.1-1.34q0-2.28,1.35-2.28a8.67,8.67,0,0,1,2.45.42c.92.28,1.39.61,1.39,1a.81.81,0,0,1-.27.59,2,2,0,0,1-.66.44,12.58,12.58,0,0,0-2.43-.64c0,.32,0,.78,0,1.37,0,.86,0,1.62,0,2.31-.07,1-.1,1.79-.1,2.3l.1.51.51,0a5.6,5.6,0,0,1,.64,0c1,0,1.54.3,1.54.9a.75.75,0,0,1-.29.59,1.12,1.12,0,0,1-.74.24,4.14,4.14,0,0,1-.89-.07h-.81c0,.56.07,1.37.07,2.44s0,2,0,2.88c-.07,1.3-.1,2.27-.1,2.91a10,10,0,0,0,.06,1.79l1.06,0c.36,0,.8,0,1.31,0,.81,0,1.22.26,1.22.77a.75.75,0,0,1-.4.69,1.87,1.87,0,0,1-1,.24H76.85A1.12,1.12,0,0,1,76.1,49.53Z" transform="translate(-13.68 -9.16)"/><path class="cls-1" d="M21.6,82.15a1.72,1.72,0,0,1-.26-1q0-8.53-.33-14.4a9.83,9.83,0,0,0-1.38-.17,7.24,7.24,0,0,0-2.41.29q0,2.28.36,6.89.33,4.9.33,6.94a1.29,1.29,0,0,1-.24.75.73.73,0,0,1-.62.35c-.35,0-.68-.63-1-1.88A79.94,79.94,0,0,1,15,68.34q-.28-6-.28-12.89c0-.85,0-2,0-3.59,0-.49.23-.74.69-.74a2.13,2.13,0,0,1,1.47.65,24.83,24.83,0,0,0-.16,3.06c0,1.15,0,2.53.16,4.16.08,1.88.12,3.3.12,4.25V64c0,.22,0,.48,0,.78A10,10,0,0,0,17,65.81l.82,0c.38,0,.76-.07,1.14-.13.9-.08,1.57-.12,2-.12Q21,62,20.89,59l-.08-6.81V51a2.35,2.35,0,0,1,.94.18,1.49,1.49,0,0,1,.61.47,2.94,2.94,0,0,1,.45,1.55v.94q0,3.51.4,13.42c.25,6,.37,10.47.37,13.47a1.58,1.58,0,0,1-.34,1,1,1,0,0,1-.84.45A.93.93,0,0,1,21.6,82.15Z" transform="translate(-13.68 -9.16)"/><path class="cls-1" d="M31.58,82a5,5,0,0,1-1.47-1.81,16.16,16.16,0,0,1-1.47-5.43,39.87,39.87,0,0,1-.37-5.34c0-.33,0-.6,0-.82v-.73c0-.14,0-.21,0-.21V67l0-2.86c0-.87.14-2.25.33-4.16a14.23,14.23,0,0,1,.94-3.79,3.11,3.11,0,0,1,.73-1.25,1.46,1.46,0,0,1,1-.42,7,7,0,0,1,2.94.59,6.11,6.11,0,0,1,2.2,1.65,9.21,9.21,0,0,1,1.39,2.51,15.26,15.26,0,0,1,.82,3.16A26.13,26.13,0,0,1,38.92,66v.33c0,.84,0,1.6,0,2.28L39,71Q39,82.7,33.54,82.7A3.2,3.2,0,0,1,31.58,82Zm3.14-1.63a3.78,3.78,0,0,0,.94-1.61,16.14,16.14,0,0,0,.94-4.49c.13-1.38.2-2.58.2-3.59,0-1.22-.1-2.83-.29-4.81s-.24-3.66-.24-4.69v-.74a4.46,4.46,0,0,0-1-2.69,3,3,0,0,0-2.35-1.14,1.84,1.84,0,0,0-1.83,1.59,10.57,10.57,0,0,0-.41,3.26c0,.52,0,1,0,1.31v1.1l-.08,1.88a18,18,0,0,0-.08,1.87c0,1.47,0,2.93.12,4.37A36.27,36.27,0,0,0,31.45,78c.44,2,1.08,3,1.92,3A1.89,1.89,0,0,0,34.72,80.39Z" transform="translate(-13.68 -9.16)"/><path class="cls-1" d="M58.62,81.51V76.29c0-1.36-.09-3.14-.28-5.34Q58,67.23,58,65.85l.08-2.53q.09-1.11.09-2.49-.16.53-1.35,5.63-1.19,4.94-2.45,9.14-1.22,4-2,4a1.69,1.69,0,0,1-1.24-.47,1.75,1.75,0,0,1-.47-1.29,41.54,41.54,0,0,0-1.45-7.63q-1.44-5.84-2.63-9.54l-.24,4.61c-.22,3.89-.37,7.12-.45,9.71s-.09,4.21-.09,5.14a3.86,3.86,0,0,0,0,.61v.57a1.61,1.61,0,0,1-.29,1,1.32,1.32,0,0,1-1.06.35,1.19,1.19,0,0,1-.78-.31.88.88,0,0,1-.36-.67q0-4.17.61-12.49t.61-12.48a1.37,1.37,0,0,1-.24-.77.82.82,0,0,1,.47-.76A2.18,2.18,0,0,1,45.94,55c.35,0,1,1.27,2,3.83s1.9,5.45,2.85,8.69,1.56,5.58,1.84,7c.21-.74.39-1.42.53-2l.24-1Q54.66,65.8,56,61.2a30.09,30.09,0,0,1,1.51-4.41q.74-1.71,1.35-1.71a1.89,1.89,0,0,1,1,.3.93.93,0,0,1,.47.8c0,2,.08,4.89.24,8.81.19,3.65.29,6.47.29,8.49l0,2.16-.08,2.16a13.14,13.14,0,0,0,.12,1.47L61,80.7q0,.36.06.57a1.67,1.67,0,0,1,0,.24,2.51,2.51,0,0,1,.21.78,2,2,0,0,1-.41,1.22,1.19,1.19,0,0,1-1,.53C59.05,84,58.62,83.2,58.62,81.51Z" transform="translate(-13.68 -9.16)"/><path class="cls-1" d="M67.25,82.08a1.29,1.29,0,0,1-.47-.89V79.31c0-.24,0-.53,0-.86q0-.86-.12-2.61l-.08-2.61c0-1.33,0-3.32.12-6,.11-2.37.16-4.35.16-6q0-.57-.12-1.71c-.08-.79-.12-1.36-.12-1.72,0-1.93.57-2.89,1.71-2.89a10.83,10.83,0,0,1,3.12.53c1.19.35,1.78.77,1.78,1.26a1.07,1.07,0,0,1-.35.76,2.61,2.61,0,0,1-.84.55,16.5,16.5,0,0,0-3.1-.82c0,.41,0,1,0,1.76,0,1.08,0,2.06,0,2.93q-.12,2-.12,2.94l.12.65.66,0a6.14,6.14,0,0,1,.81,0c1.31,0,2,.38,2,1.14a1,1,0,0,1-.37.76,1.4,1.4,0,0,1-.93.3,5.86,5.86,0,0,1-1.15-.08h-1c.06.71.09,1.74.09,3.1s0,2.59,0,3.67q-.12,2.49-.12,3.72a12.65,12.65,0,0,0,.08,2.28l1.35,0c.46,0,1,0,1.67,0,1,0,1.55.33,1.55,1a1,1,0,0,1-.51.88,2.4,2.4,0,0,1-1.24.3H68.21A1.43,1.43,0,0,1,67.25,82.08Z" transform="translate(-13.68 -9.16)"/><path class="cls-1" d="M40.12,112c0-2.93-.13-7.64-.4-14.1S39.21,88,39,87.64A1.87,1.87,0,0,1,39.82,86a3.23,3.23,0,0,1,.85-.32,4.3,4.3,0,0,1,1-.13,6.42,6.42,0,0,1,1,0,2.17,2.17,0,0,1,1.26.28,1.2,1.2,0,0,1,.38,1,.73.73,0,0,1-.31.63,1.29,1.29,0,0,1-.76.21l-.38,0h-.53c-.71,0-1.06.14-1.06.42,0,1.32.08,3,.26,5.17.15,1.77.25,3.46.31,5l1-.24a5.29,5.29,0,0,1,1.12-.18.92.92,0,0,1,.73.37A1.23,1.23,0,0,1,45,99a.78.78,0,0,1-.49.76l-.36.17a2.29,2.29,0,0,1-.75.18l-1.14.11H41.8c0,1.52.12,3.58.38,6.19s.34,4.81.34,6.2l0,.15,0,.08a2,2,0,0,1,0,.49,1,1,0,0,1-.34.78,1.38,1.38,0,0,1-.91.29C40.49,114.4,40.12,113.59,40.12,112Z" transform="translate(-13.68 -9.16)"/><path class="cls-1" d="M51.94,114.45a4.62,4.62,0,0,1-1.36-1.69,14.75,14.75,0,0,1-1.37-5.05,37.78,37.78,0,0,1-.34-5c0-.31,0-.56,0-.76v-.69c0-.12,0-.19,0-.19v-.68l0-2.66c0-.81.13-2.1.31-3.88a13,13,0,0,1,.87-3.53,2.86,2.86,0,0,1,.69-1.16,1.3,1.3,0,0,1,.95-.4,6.5,6.5,0,0,1,2.73.55,5.84,5.84,0,0,1,2.06,1.54,8.92,8.92,0,0,1,1.29,2.34,13.78,13.78,0,0,1,.76,2.94,24.26,24.26,0,0,1,.23,3.38v.31q0,1.17,0,2.13l0,2.16q0,11-5.09,11A3,3,0,0,1,51.94,114.45Zm2.93-1.52a3.54,3.54,0,0,0,.88-1.5,14.72,14.72,0,0,0,.87-4.18c.13-1.29.19-2.41.19-3.34,0-1.14-.09-2.64-.27-4.49s-.22-3.41-.22-4.37v-.68a4.21,4.21,0,0,0-1-2.51,2.77,2.77,0,0,0-2.19-1.07,1.73,1.73,0,0,0-1.71,1.48,10.27,10.27,0,0,0-.38,3c0,.48,0,.88,0,1.21v1L51,99.31c-.05.53-.07,1.11-.07,1.75,0,1.36,0,2.72.11,4.06a32.67,32.67,0,0,0,.76,5.55c.41,1.88,1,2.82,1.79,2.82A1.77,1.77,0,0,0,54.87,112.93Z" transform="translate(-13.68 -9.16)"/><path class="cls-1" d="M65.63,114.45a4.54,4.54,0,0,1-1.37-1.69,15,15,0,0,1-1.37-5.05,37.78,37.78,0,0,1-.34-5,5.35,5.35,0,0,1,0-.76v-.69c0-.12,0-.19,0-.19v-.68l0-2.66c0-.81.12-2.1.3-3.88a13.06,13.06,0,0,1,.88-3.53,2.74,2.74,0,0,1,.68-1.16,1.33,1.33,0,0,1,1-.4,6.54,6.54,0,0,1,2.74.55,5.81,5.81,0,0,1,2,1.54,8.38,8.38,0,0,1,1.29,2.34,13.21,13.21,0,0,1,.76,2.94,24.26,24.26,0,0,1,.23,3.38v.31c0,.78,0,1.49,0,2.13l0,2.16q0,11-5.1,11A3,3,0,0,1,65.63,114.45Zm2.93-1.52a3.43,3.43,0,0,0,.87-1.5,14.72,14.72,0,0,0,.87-4.18c.13-1.29.19-2.41.19-3.34,0-1.14-.09-2.64-.26-4.49S70,96,70,95.05v-.68a4.09,4.09,0,0,0-1-2.51,2.76,2.76,0,0,0-2.19-1.07,1.73,1.73,0,0,0-1.71,1.48,10.27,10.27,0,0,0-.38,3c0,.48,0,.88,0,1.21v1l-.07,1.75a15.73,15.73,0,0,0-.08,1.75c0,1.36,0,2.72.11,4.06a33.71,33.71,0,0,0,.76,5.55c.41,1.88,1,2.82,1.79,2.82A1.78,1.78,0,0,0,68.56,112.93Z" transform="translate(-13.68 -9.16)"/><path class="cls-1" d="M76.92,109.61l.07-6q0-2.66,0-6c0-.81-.08-2.06-.23-3.76-.12-1.85-.19-3-.19-3.38a1.17,1.17,0,0,1,.42-.88,1.34,1.34,0,0,1,.91-.38,6,6,0,0,1,2.57.59,7,7,0,0,1,2.18,1.66,11.77,11.77,0,0,1,2.67,5.09,12.13,12.13,0,0,1,.34,2.77c0,.33,0,.64,0,.92l0,1v2.09a38,38,0,0,1-.15,3.84,12,12,0,0,1-.87,3.39,8.93,8.93,0,0,1-2.21,2.85,10.62,10.62,0,0,1-1.75,1.14H77.91Q76.92,114.59,76.92,109.61ZM81,112.25a3.8,3.8,0,0,0,1.11-1.08,8.32,8.32,0,0,0,.7-1.54,13.53,13.53,0,0,0,.48-1.81,23.57,23.57,0,0,0,.41-3.5c0-.3,0-.74,0-1.33q0-11.47-4.45-12A27,27,0,0,0,79,95q0,2.4.3,8.37.27,5.28.27,8.4v.91A2.59,2.59,0,0,0,81,112.25Z" transform="translate(-13.68 -9.16)"/><path class="cls-1" d="M15.21,20.65a2,2,0,0,1-.6-.52,3.5,3.5,0,0,1-.41-.8,5.89,5.89,0,0,1-.27-1A15.09,15.09,0,0,1,13.69,16c0-.23,0-.62,0-1.18v-.94c0-.27,0-.55,0-.84a7.25,7.25,0,0,1,.11-1.4,2.24,2.24,0,0,1-.05-.46,1.79,1.79,0,0,1,.68-1.45,2.61,2.61,0,0,1,1.71-.56,1.31,1.31,0,0,1,.71.21.62.62,0,0,1,.33.53.29.29,0,0,1-.12.24.49.49,0,0,1-.3.09,1.32,1.32,0,0,1-.32-.05.33.33,0,0,1-.22-.13H16v0a1.69,1.69,0,0,0-.93.24,1.24,1.24,0,0,0-.42.64,1.9,1.9,0,0,0-.09.42,3.93,3.93,0,0,0,0,.46c0,.08,0,.24,0,.48l0,.53v.51a2.68,2.68,0,0,1-.06.52,3,3,0,0,0-.07.53v.36c0,.38,0,.92,0,1.6a8.87,8.87,0,0,0,.2,1.7,3.4,3.4,0,0,0,.51,1.35,1.1,1.1,0,0,0,1,.57,1.17,1.17,0,0,0,.63-.27,1.33,1.33,0,0,1,.57-.27.64.64,0,0,1,.43.23,1,1,0,0,1-.42.85,2.12,2.12,0,0,1-.93.35l-.47,0A1.62,1.62,0,0,1,15.21,20.65Z" transform="translate(-13.68 -9.16)"/><path class="cls-1" d="M20,20.64a1.78,1.78,0,0,1-.54-.66,6.21,6.21,0,0,1-.53-2,14.82,14.82,0,0,1-.14-2,2.36,2.36,0,0,1,0-.3v-.27s0-.07,0-.07v-.27l0-1q0-.48.12-1.53a5.14,5.14,0,0,1,.34-1.39,1.19,1.19,0,0,1,.27-.46.53.53,0,0,1,.37-.15,2.67,2.67,0,0,1,1.08.21,2.34,2.34,0,0,1,.81.61,3.5,3.5,0,0,1,.51.92,5.49,5.49,0,0,1,.3,1.16,9.52,9.52,0,0,1,.09,1.34v.11c0,.31,0,.59,0,.84l0,.86q0,4.31-2,4.31A1.15,1.15,0,0,1,20,20.64Zm1.16-.6a1.35,1.35,0,0,0,.34-.59,5.84,5.84,0,0,0,.35-1.64c.05-.51.07-.95.07-1.32s0-1-.1-1.77-.09-1.34-.09-1.72v-.27a1.61,1.61,0,0,0-.39-1,1.07,1.07,0,0,0-.86-.42.68.68,0,0,0-.67.58,4,4,0,0,0-.15,1.2c0,.19,0,.35,0,.48V14l0,.69c0,.2,0,.43,0,.68,0,.54,0,1.08.05,1.61a13,13,0,0,0,.3,2.18c.16.74.39,1.11.7,1.11A.69.69,0,0,0,21.17,20Z" transform="translate(-13.68 -9.16)"/><path class="cls-1" d="M28.19,20.55a.64.64,0,0,1-.13-.33L28,19.93v-.07a19.1,19.1,0,0,0-1-3.37c-.68-1.92-1.22-3.34-1.61-4.26v7.54l.06.1.06.11a.28.28,0,0,1,0,.15.44.44,0,0,1-.46.46c-.32,0-.48-.3-.48-.91V17.12c0-.77,0-1.63,0-2.58,0-.32,0-.78.05-1.39s0-1.1,0-1.4a1.31,1.31,0,0,1,.54-1.1v.09l.12,0c.23,0,.52.4.87,1.19.28.64.53,1.32.76,2s.52,1.71.89,3l.15.54c.23.81.4,1.39.52,1.74.2-2.15.3-4.68.3-7.61v-.19a1.23,1.23,0,0,1,0-.2q0-.45.36-.45a.39.39,0,0,1,.33.17.77.77,0,0,1,.11.42v1.12c0,1.54-.08,3.2-.18,5a12,12,0,0,1-.36,3,3,3,0,0,1-.54.12A.33.33,0,0,1,28.19,20.55Z" transform="translate(-13.68 -9.16)"/><path class="cls-1" d="M35.36,20.55a.64.64,0,0,1-.13-.33l-.09-.29v-.07a18.17,18.17,0,0,0-1-3.37c-.68-1.92-1.22-3.34-1.61-4.26v7.54l.06.1.06.11a.3.3,0,0,1,.05.15.45.45,0,0,1-.14.33.44.44,0,0,1-.33.13c-.32,0-.48-.3-.48-.91V17.12c0-.77,0-1.63,0-2.58,0-.32,0-.78,0-1.39s0-1.1,0-1.4a1.31,1.31,0,0,1,.54-1.1v.09l.12,0c.23,0,.52.4.87,1.19.28.64.53,1.32.76,2s.52,1.71.89,3l.15.54c.23.81.4,1.39.52,1.74.2-2.15.3-4.68.3-7.61v-.19a1.27,1.27,0,0,1,0-.2q0-.45.36-.45a.37.37,0,0,1,.32.17.77.77,0,0,1,.11.42v1.12c0,1.54-.08,3.2-.18,5a12,12,0,0,1-.36,3,3,3,0,0,1-.54.12A.33.33,0,0,1,35.36,20.55Z" transform="translate(-13.68 -9.16)"/><path class="cls-1" d="M39.06,20.67a.46.46,0,0,1-.18-.33v-.69a3.11,3.11,0,0,1,0-.32c0-.21,0-.53,0-1l0-.95c0-.49,0-1.22.05-2.19s.06-1.6.06-2.19c0-.14,0-.35,0-.63s0-.5,0-.63c0-.7.21-1.06.63-1.06a4,4,0,0,1,1.14.2c.44.13.65.28.65.46a.41.41,0,0,1-.12.28,1.1,1.1,0,0,1-.31.2,6.06,6.06,0,0,0-1.14-.3c0,.15,0,.36,0,.64s0,.76,0,1.08c0,.48,0,.84,0,1.08l0,.24h.24l.3,0q.72,0,.72.42a.35.35,0,0,1-.13.28.56.56,0,0,1-.35.11,2.26,2.26,0,0,1-.42,0h-.37q0,.39,0,1.14c0,.5,0,1,0,1.35,0,.6,0,1.06,0,1.36a4.44,4.44,0,0,0,0,.84l.49,0h.62c.37,0,.56.12.56.36a.36.36,0,0,1-.18.32,1,1,0,0,1-.46.11H39.41A.51.51,0,0,1,39.06,20.67Z" transform="translate(-13.68 -9.16)"/><path class="cls-1" d="M44.28,20.72a2.41,2.41,0,0,1-.56-.22c-.67-.43-1-1.6-1-3.52V15.75c0-.4,0-.75,0-1.07s0-.65.06-1a5.9,5.9,0,0,1,.14-.95,4.79,4.79,0,0,1,.3-.84,1.86,1.86,0,0,1,.44-.67,2.11,2.11,0,0,1,.68-.4,2.31,2.31,0,0,1,.93-.17.5.5,0,0,1,.34.11.34.34,0,0,1,.12.27.44.44,0,0,1-.09.27.36.36,0,0,1-.24.13h-.7a.65.65,0,0,0-.53.37,2.9,2.9,0,0,0-.31,1,10.79,10.79,0,0,0-.19,1.8v.07l0,1.44c0,.43,0,.91,0,1.45a7.93,7.93,0,0,0,0,.93,2.91,2.91,0,0,0,.26.9,1.09,1.09,0,0,0,.61.58A1.3,1.3,0,0,0,45,20a.56.56,0,0,0,.33-.12.67.67,0,0,1,.33.08.29.29,0,0,1,.12.25c0,.39-.27.59-.82.59A3,3,0,0,1,44.28,20.72Z" transform="translate(-13.68 -9.16)"/><path class="cls-1" d="M48,20.37l0-.59c0-.17,0-.36,0-.57V18.7c0-.11-.1-1.2-.22-3.28s-.19-3.41-.21-4a2.71,2.71,0,0,1-1.11-.18.33.33,0,0,1-.16-.27.27.27,0,0,1,.15-.22.6.6,0,0,1,.33-.1c.28,0,.61,0,1,.06a8,8,0,0,0,1,.08H49c.31,0,.47.12.47.36a.35.35,0,0,1-.15.29.61.61,0,0,1-.35.11,2.31,2.31,0,0,1-.39,0l-.3-.06v.07l0,.08c0,.88.09,2.3.26,4.25s.24,3.24.24,4.25a.4.4,0,0,1-.16.32.51.51,0,0,1-.35.13Z" transform="translate(-13.68 -9.16)"/><path class="cls-1" d="M50.43,20.14c0-.24.15-.36.46-.36h.17l.15,0a.17.17,0,0,0,.16-.08.56.56,0,0,0,.05-.27c0-.17,0-.43,0-.79s-.07-.67-.11-1.29c-.09-1.53-.13-2.68-.13-3.46,0-.28,0-.53,0-.76l0-.77a6.09,6.09,0,0,0,0-.82,1.61,1.61,0,0,1-.34.06.32.32,0,0,1-.36-.36c0-.12.07-.22.23-.31a1.53,1.53,0,0,1,.56-.2,5.55,5.55,0,0,1,1.07-.12.38.38,0,0,1,.3.13.37.37,0,0,1,.13.29.43.43,0,0,1-.1.29.29.29,0,0,1-.24.12l-.15,0h-.12a.29.29,0,0,0-.22.07.34.34,0,0,0-.07.24q0,1.46.18,4.38,0,.54.12,1.59a12.85,12.85,0,0,1,.08,1.4v.57h.3c.42,0,.63.17.63.52v.09l-.38.26h-.4l-.62,0C50.86,20.59,50.43,20.44,50.43,20.14Z" transform="translate(-13.68 -9.16)"/><path class="cls-1" d="M58.19,20.55a.64.64,0,0,1-.14-.33L58,19.93v-.07a18.61,18.61,0,0,0-1-3.37c-.69-1.92-1.22-3.34-1.61-4.26v7.54l.06.1.06.11a.28.28,0,0,1,0,.15.44.44,0,0,1-.46.46c-.32,0-.48-.3-.48-.91l0-2.56c0-.77,0-1.63,0-2.58,0-.32,0-.78,0-1.39s0-1.1,0-1.4a1.31,1.31,0,0,1,.54-1.1v.09l.12,0c.23,0,.52.4.87,1.19a19.39,19.39,0,0,1,.75,2c.23.71.52,1.71.89,3l.15.54c.23.81.41,1.39.53,1.74.2-2.15.3-4.68.3-7.61v-.19a1.23,1.23,0,0,1,0-.2q0-.45.36-.45a.36.36,0,0,1,.32.17.7.7,0,0,1,.12.42v1.12c0,1.54-.08,3.2-.18,5a12,12,0,0,1-.36,3,3,3,0,0,1-.54.12A.33.33,0,0,1,58.19,20.55Z" transform="translate(-13.68 -9.16)"/><path class="cls-1" d="M62.73,20.57a1.94,1.94,0,0,1-.59-.41,2.07,2.07,0,0,1-.36-.62,4.32,4.32,0,0,1-.24-.78,5,5,0,0,1-.12-.82q0-.54-.06-.93V15.54c0-.57,0-1,0-1.42a8.35,8.35,0,0,1,.2-1.42,3.27,3.27,0,0,1,.46-1.18,1.66,1.66,0,0,1,.88-.71,1.77,1.77,0,0,1,.63-.1c.43,0,.65.12.65.37a.36.36,0,0,1-.14.29.52.52,0,0,1-.34.12l-.17,0h-.15a.57.57,0,0,0-.45.26,2.67,2.67,0,0,0-.32.75,12.13,12.13,0,0,0-.33,2c0,.67-.06,1.18-.06,1.51s0,.8,0,1.39a6.29,6.29,0,0,0,.26,1.44,2.47,2.47,0,0,0,.24.58,1.41,1.41,0,0,0,.37.36,1,1,0,0,0,.52.17q.72,0,.72-2.4v-.69a.94.94,0,0,0-.34,0h-.3c-.35,0-.53-.12-.53-.35a.38.38,0,0,1,.15-.32.57.57,0,0,1,.36-.11H64c.9,0,1.35.16,1.35.47a3.5,3.5,0,0,1-.07.54,2.46,2.46,0,0,0-.09.54c0,.17,0,.43,0,.79l0,.79a1.39,1.39,0,0,1-.5,1.13,1.95,1.95,0,0,1-2,.26Z" transform="translate(-13.68 -9.16)"/></svg>