<?xml version="1.0" encoding="utf-8"?>
<!-- Generator: Adobe Illustrator 21.1.0, SVG Export Plug-In . SVG Version: 6.00 Build 0)  -->
<svg version="1.1" id="Layer_1" xmlns="http://www.w3.org/2000/svg" xmlns:xlink="http://www.w3.org/1999/xlink" x="0px" y="0px"
	 viewBox="0 0 72 105.9" style="enable-background:new 0 0 72 105.9;" xml:space="preserve">
<style type="text/css">
	.st0{fill:#050708;}
	.st1{fill:#FFFFFF;}
</style>
<title>slogan-white-01</title>
<path class="st0" d="M14.8,40.1c-0.1-0.2-0.2-0.5-0.2-0.8l0.1-5.4c0.1-2.6,0.1-4.6,0.1-6c0.1-3.8-0.2-7.7-0.8-11.4
	c0.2-0.4,0.7-0.7,1.2-0.7c0.8,0,1.5,0.2,2.2,0.5c0.6,0.3,1.2,0.8,1.6,1.4c0.8,1.2,1.3,2.7,1.3,4.1c0,1.5-0.3,3-1,4.3
	c-0.7,1.3-1.7,2.3-3,2.9l0.1,3.2l0.1,1.7c0,0.4,0,0.9,0,1.6c0.1,1.4,0.1,2.6,0.1,3.5c0,0.4-0.1,0.7-0.3,1c-0.2,0.2-0.5,0.4-0.8,0.3
	C15.1,40.4,14.9,40.3,14.8,40.1z M17.9,25.1c0.4-0.9,0.6-1.9,0.6-2.9l0,0c0-0.6-0.1-1.3-0.2-1.9c-0.1-0.3-0.2-0.5-0.4-0.8
	c-0.2-0.3-0.3-0.4-0.3-0.5c-0.4-0.4-0.8-0.7-1.2-1l-0.8-0.6c0,1.1,0.1,2.8,0.2,5.1l0.2,5C16.8,26.8,17.5,26,17.9,25.1L17.9,25.1z"/>
<path class="st0" d="M24.2,40.4c-0.2-0.2-0.4-0.4-0.4-0.7v-1.5c0-0.2,0-0.4,0-0.7c0-0.5,0-1.1-0.1-2l-0.1-2c0-1,0-2.6,0.1-4.7
	c0.1-1.9,0.1-3.4,0.1-4.7c0-0.3,0-0.8-0.1-1.4c-0.1-0.4-0.1-0.9-0.1-1.3c0-1.5,0.5-2.3,1.3-2.3c0.8,0,1.7,0.2,2.5,0.4
	c0.9,0.3,1.4,0.6,1.4,1c0,0.2-0.1,0.4-0.3,0.6c-0.2,0.2-0.4,0.3-0.7,0.4c-0.8-0.3-1.6-0.5-2.4-0.6c0,0.3,0,0.8,0,1.4
	c0,0.9,0,1.6,0,2.3c-0.1,1-0.1,1.8-0.1,2.3l0.1,0.5h0.5c0.2,0,0.4,0,0.6,0c1,0,1.5,0.3,1.5,0.9c0,0.2-0.1,0.4-0.3,0.6
	c-0.2,0.2-0.5,0.3-0.7,0.2c-0.3,0-0.6,0-0.9-0.1h-0.8c0,0.6,0.1,1.4,0.1,2.4s0,2,0,2.9c-0.1,1.3-0.1,2.3-0.1,2.9
	c0,0.6,0,1.2,0.1,1.8h1.1c0.4,0,0.8,0,1.3,0c0.8,0,1.2,0.3,1.2,0.8c0,0.3-0.1,0.6-0.4,0.7c-0.3,0.2-0.7,0.3-1,0.2H25
	C24.7,40.8,24.4,40.6,24.2,40.4z"/>
<path class="st0" d="M34.8,40.3c-0.5-0.4-0.9-0.9-1.2-1.4c-0.6-1.3-1-2.8-1.2-4.3c-0.2-1.4-0.3-2.8-0.3-4.2c0-0.2,0-0.4,0-0.6v-0.6
	c0-0.1,0-0.2,0-0.2v-0.6v-2.2c0-0.7,0.1-1.8,0.3-3.3c0.1-1,0.3-2,0.7-3c0.1-0.4,0.3-0.7,0.6-1c0.2-0.2,0.5-0.3,0.8-0.3
	c0.8,0,1.6,0.1,2.3,0.5c0.7,0.3,1.3,0.7,1.7,1.3c0.5,0.6,0.8,1.3,1.1,2c0.3,0.8,0.5,1.6,0.6,2.5c0.1,0.9,0.2,1.9,0.2,2.8V28
	c0,0.7,0,1.3,0,1.8v1.8c0.1,6.1-1.3,9.2-4.2,9.2C35.8,40.8,35.2,40.7,34.8,40.3z M37.3,39c0.4-0.3,0.6-0.8,0.7-1.3
	c0.4-1.1,0.7-2.3,0.7-3.5c0.1-1.1,0.2-2,0.2-2.8c0-1-0.1-2.2-0.2-3.8s-0.2-2.9-0.2-3.7v-0.6c0-0.8-0.3-1.5-0.8-2.1
	c-0.4-0.6-1.1-0.9-1.8-0.9c-0.7,0-1.3,0.5-1.4,1.3c-0.2,0.8-0.3,1.7-0.3,2.6c0,0.3,0,0.7,0,1v0.9l-0.1,1.5c0,0.5-0.1,0.9-0.1,1.5
	c0,1.1,0,2.3,0.1,3.4c0.1,1.6,0.3,3.1,0.6,4.7c0.3,1.6,0.8,2.4,1.5,2.4C36.6,39.5,37,39.3,37.3,39z"/>
<path class="st0" d="M44.8,40.5c-0.3-1.5-0.5-3.1-0.4-4.7l0.1-2.8c0-0.8,0.1-1.8,0.1-2.8c-0.1-0.3-0.2-0.5-0.2-0.8v-0.1
	c0.3-0.9,0.4-1.8,0.3-2.8v-1.5c0-0.5,0-1,0-1.6c0-1-0.1-2-0.3-3c0.1-0.3,0.2-0.5,0.3-0.8c0.1-0.2,0.3-0.3,0.5-0.3h1.4
	c0.5,0,1.1,0.1,1.6,0.4c0.5,0.3,0.8,0.7,1.1,1.2c0.4,1,0.7,2,0.6,3.1c0,0.9,0,1.5,0,2c0,0.6-0.1,1.1-0.3,1.7c0,0.2-0.1,0.5-0.3,0.7
	c-0.2,0.2-0.3,0.4-0.5,0.7c-0.4,0.4-0.9,0.8-1.5,1c-0.3,0.2-0.7,0.3-1.1,0.4v3.5l0.1,2l0.1,1c0.1,1.2,0.1,2.2,0.1,3
	c0,0.3-0.1,0.5-0.3,0.7c-0.2,0.2-0.5,0.3-0.7,0.3L44.8,40.5z M48.2,23.7c0-0.5,0-1-0.1-1.4c-0.1-0.2-0.1-0.4-0.3-0.6
	c-0.1-0.2-0.3-0.3-0.5-0.4c-0.2-0.1-0.5-0.2-0.8-0.2c0,0-0.1,0-0.3,0v1.8c0,1.3,0,2.4,0,3.4c0,1.1,0,1.8,0,2.2v0.7
	C47.6,28.9,48.2,27.1,48.2,23.7z"/>
<path class="st0" d="M55.2,40.4c-0.3,0.2-0.7,0.3-1.1,0.3c-0.3,0-0.5-0.1-0.7-0.3c-0.2-0.2-0.3-0.5-0.3-0.7c0-1.8,0.1-4.2,0.2-7.2
	c0.1-3.2,0.2-5.6,0.2-7.1v-0.2c-0.1-1.3-0.2-2.4-0.2-3c0-2,0.4-3,1.1-3c0.4,0,0.8,0.4,0.8,0.8c0,0.4,0,0.8-0.1,1.2
	c-0.1,0.4-0.1,0.8-0.1,1.2c0,1.4,0,2.7,0,3.9s0,2.4,0,3.8C55,30.5,55,30.9,55,31.4v0.4l-0.1,2.5c0,0.8-0.1,1.6-0.1,2.6
	c0,1.5,0.4,2.2,1.1,2.2h0.2h0.4c0.2,0,0.4,0,0.7,0c1.2,0,1.7,0.3,1.7,1c0,0.2-0.1,0.4-0.3,0.5c-0.2,0.2-0.4,0.2-0.7,0.3
	C57.1,40.6,56.2,40.4,55.2,40.4z"/>
<path class="st0" d="M62.4,40.4c-0.2-0.2-0.4-0.4-0.4-0.7v-1.5c0-0.2,0-0.4,0-0.7c0-0.5,0-1.1-0.1-2l-0.1-2c0-1,0-2.6,0.1-4.7
	c0.1-1.9,0.1-3.4,0.1-4.7c0-0.3,0-0.8-0.1-1.4c-0.1-0.4-0.1-0.9-0.1-1.3c0-1.5,0.5-2.3,1.3-2.3c0.8,0,1.7,0.2,2.4,0.4
	c0.9,0.3,1.4,0.6,1.4,1c0,0.2-0.1,0.4-0.3,0.6c-0.2,0.2-0.4,0.3-0.7,0.4c-0.8-0.3-1.6-0.5-2.4-0.6c0,0.3,0,0.8,0,1.4
	c0,0.9,0,1.6,0,2.3c-0.1,1-0.1,1.8-0.1,2.3l0.1,0.5h0.5c0.2,0,0.4,0,0.6,0c1,0,1.5,0.3,1.5,0.9c0,0.2-0.1,0.4-0.3,0.6
	c-0.2,0.2-0.5,0.3-0.7,0.2c-0.3,0-0.6,0-0.9-0.1h-0.8c0,0.6,0.1,1.4,0.1,2.4s0,2,0,2.9c-0.1,1.3-0.1,2.3-0.1,2.9
	c0,0.6,0,1.2,0.1,1.8h1.1c0.4,0,0.8,0,1.3,0c0.8,0,1.2,0.3,1.2,0.8c0,0.3-0.1,0.6-0.4,0.7c-0.3,0.2-0.7,0.3-1,0.2h-2.8
	C62.9,40.8,62.6,40.6,62.4,40.4z"/>
<path class="st0" d="M7.9,73c-0.2-0.3-0.3-0.6-0.3-1c0-5.7-0.1-10.5-0.3-14.4c-0.5-0.1-0.9-0.1-1.4-0.2c-0.8,0-1.6,0.1-2.4,0.3
	c0,1.5,0.1,3.8,0.4,6.9c0.2,3.3,0.3,5.6,0.3,6.9c0,0.3-0.1,0.5-0.2,0.8c-0.1,0.2-0.4,0.3-0.6,0.3c-0.4,0-0.7-0.6-1-1.9
	c-0.6-3.8-1-7.7-1.1-11.6C1.1,55.2,1,50.9,1,46.3c0-0.8,0-2,0-3.6C1,42.2,1.3,42,1.7,42c0.6,0,1.1,0.2,1.5,0.7c-0.1,1-0.2,2-0.2,3.1
	c0,1.2,0,2.5,0.2,4.2c0.1,1.9,0.1,3.3,0.1,4.3v0.8c0,0.2,0,0.5,0,0.8c0,0.3,0,0.7,0,1h0.8c0.4,0,0.8-0.1,1.1-0.1
	c0.9-0.1,1.6-0.1,2-0.1c0-2.4,0-4.6-0.1-6.6L7.1,43v-1.2c0.3,0,0.6,0.1,0.9,0.2c0.2,0.1,0.5,0.3,0.6,0.5C9,43,9.1,43.5,9.1,44V45
	c0,2.3,0.1,6.8,0.4,13.4c0.3,6,0.4,10.5,0.4,13.5c0,0.4-0.1,0.7-0.3,1c-0.2,0.3-0.5,0.5-0.8,0.4C8.4,73.3,8.1,73.2,7.9,73z"/>
<path class="st0" d="M17.9,72.8c-0.6-0.5-1.1-1.1-1.5-1.8c-0.8-1.7-1.3-3.5-1.5-5.4c-0.2-1.8-0.4-3.6-0.4-5.3c0-0.3,0-0.6,0-0.8
	v-0.7c0-0.1,0-0.2,0-0.2v-0.7V55c0-0.9,0.1-2.3,0.3-4.2c0.1-1.3,0.5-2.6,0.9-3.8c0.1-0.5,0.4-0.9,0.7-1.3c0.3-0.3,0.6-0.4,1-0.4
	c1,0,2,0.2,2.9,0.6c0.8,0.4,1.6,0.9,2.2,1.7c0.6,0.8,1.1,1.6,1.4,2.5c0.4,1,0.7,2.1,0.8,3.2c0.2,1.2,0.3,2.4,0.3,3.6v0.3
	c0,0.8,0,1.6,0,2.3l0.1,2.4c0,7.8-1.8,11.7-5.5,11.7C19.1,73.5,18.5,73.3,17.9,72.8z M21,71.2c0.4-0.4,0.8-1,0.9-1.6
	c0.5-1.4,0.8-3,0.9-4.5c0.1-1.4,0.2-2.6,0.2-3.6c0-1.2-0.1-2.8-0.3-4.8s-0.2-3.7-0.2-4.7v-0.7c0-1-0.4-1.9-1-2.7
	c-0.6-0.7-1.4-1.1-2.3-1.1c-0.9,0-1.7,0.7-1.8,1.6c-0.3,1.1-0.4,2.2-0.4,3.3c0,0.5,0,1,0,1.3v1.1l-0.1,1.9c-0.1,0.6-0.1,1.2-0.1,1.9
	c0,1.5,0,2.9,0.1,4.4c0.1,2,0.4,4,0.8,6c0.4,2,1.1,3,1.9,3C20.2,71.8,20.7,71.6,21,71.2L21,71.2z"/>
<path class="st0" d="M44.9,72.4v-5.2c0-1.4-0.1-3.1-0.3-5.3c-0.2-2.5-0.3-4.2-0.3-5.1l0.1-2.5c0.1-0.7,0.1-1.6,0.1-2.5
	c-0.1,0.4-0.6,2.2-1.3,5.6c-0.8,3.3-1.6,6.3-2.5,9.1c-0.8,2.7-1.5,4-2,4c-0.5,0-0.9-0.2-1.2-0.5c-0.3-0.3-0.5-0.8-0.5-1.3
	c-0.2-2.6-0.7-5.1-1.5-7.6c-1-3.9-1.8-7.1-2.6-9.5l-0.2,4.6c-0.2,3.9-0.4,7.1-0.5,9.7c-0.1,2.6-0.1,4.2-0.1,5.1c0,0.2,0,0.4,0,0.6
	v0.6c0,0.4-0.1,0.7-0.3,1c-0.3,0.3-0.7,0.4-1.1,0.4c-0.3,0-0.6-0.1-0.8-0.3c-0.2-0.2-0.3-0.4-0.4-0.7c0-2.8,0.2-6.9,0.6-12.5
	c0.4-5.5,0.6-9.7,0.6-12.5c-0.2-0.2-0.2-0.5-0.2-0.8c0-0.3,0.2-0.6,0.5-0.8c0.4-0.2,0.8-0.2,1.2-0.2c0.3,0,1,1.3,2,3.8
	s1.9,5.4,2.8,8.7s1.6,5.6,1.8,7c0.2-0.7,0.4-1.4,0.5-2l0.2-1c0.8-3.8,1.7-7.3,2.6-10.3c0.4-1.5,0.9-3,1.5-4.4
	c0.5-1.1,0.9-1.7,1.3-1.7c0.4,0,0.7,0.1,1,0.3c0.3,0.2,0.5,0.5,0.5,0.8c0,2,0.1,4.9,0.2,8.8c0.2,3.7,0.3,6.5,0.3,8.5v2.2l-0.1,2.2
	c0,0.5,0.1,1,0.1,1.5l0.1,1.4c0,0.2,0,0.4,0.1,0.6c0,0.1,0,0.2,0,0.2c0.1,0.2,0.2,0.5,0.2,0.8c0,0.4-0.1,0.9-0.4,1.2
	c-0.2,0.3-0.6,0.5-1,0.5C45.4,74.8,44.9,74,44.9,72.4z"/>
<path class="st0" d="M53.6,72.9c-0.3-0.2-0.4-0.5-0.5-0.9v-1.9c0-0.2,0-0.5,0-0.9c0-0.6,0-1.4-0.1-2.6l-0.1-2.6c0-1.3,0-3.3,0.1-6
	c0.1-2.4,0.2-4.3,0.2-6c0-0.4,0-0.9-0.1-1.7c-0.1-0.8-0.1-1.4-0.1-1.7c0-1.9,0.6-2.9,1.7-2.9c1.1,0,2.1,0.2,3.1,0.5
	c1.2,0.3,1.8,0.8,1.8,1.3c0,0.3-0.1,0.6-0.3,0.8c-0.2,0.2-0.5,0.4-0.8,0.5c-1-0.4-2-0.6-3.1-0.8c0,0.4,0,1,0,1.8c0,1.1,0,2.1,0,2.9
	c-0.1,1.3-0.1,2.3-0.1,2.9l0.1,0.7h0.7c0.3,0,0.5,0,0.8,0c1.3,0,2,0.4,2,1.1c0,0.3-0.1,0.6-0.4,0.8c-0.3,0.2-0.6,0.3-0.9,0.3
	c-0.4,0-0.8,0-1.2-0.1h-1c0.1,0.7,0.1,1.7,0.1,3.1s0,2.6,0,3.7c-0.1,1.7-0.1,2.9-0.1,3.7c0,0.8,0,1.5,0.1,2.3h1.3c0.5,0,1,0,1.7,0
	c1,0,1.6,0.3,1.6,1c0,0.4-0.2,0.7-0.5,0.9c-0.4,0.2-0.8,0.3-1.2,0.3h-3.6C54.2,73.4,53.8,73.2,53.6,72.9z"/>
<path class="st0" d="M26.4,102.8c0-2.9-0.1-7.6-0.4-14.1c-0.3-6.5-0.5-9.9-0.7-10.3c0-0.7,0.3-1.3,0.8-1.6c0.3-0.1,0.6-0.3,0.8-0.3
	c0.3-0.1,0.7-0.1,1-0.1c0.3,0,0.7,0,1,0c0.4,0,0.9,0.1,1.3,0.3c0.3,0.3,0.4,0.6,0.4,1c0,0.2-0.1,0.5-0.3,0.6
	c-0.2,0.1-0.5,0.2-0.8,0.2h-0.4h-0.5c-0.7,0-1.1,0.1-1.1,0.4c0,1.3,0.1,3,0.3,5.2c0.2,1.8,0.3,3.5,0.3,5l1-0.2
	c0.4-0.1,0.7-0.2,1.1-0.2c0.3,0,0.6,0.1,0.7,0.4c0.2,0.2,0.3,0.5,0.3,0.8c0,0.3-0.2,0.6-0.5,0.8l-0.4,0.2c-0.2,0.1-0.5,0.2-0.8,0.2
	l-1.1,0.1h-0.5c0,1.5,0.1,3.6,0.4,6.2s0.3,4.8,0.3,6.2v0.2v0.1c0,0.2,0,0.3,0,0.5c0,0.3-0.1,0.6-0.3,0.8c-0.3,0.2-0.6,0.3-0.9,0.3
	C26.8,105.2,26.4,104.4,26.4,102.8z"/>
<path class="st0" d="M38.3,105.3c-0.6-0.4-1-1-1.4-1.7c-0.8-1.6-1.2-3.3-1.4-5.1c-0.2-1.7-0.3-3.3-0.3-5c0-0.3,0-0.6,0-0.8v-0.7
	c0-0.1,0-0.2,0-0.2v-0.7v-2.7c0-0.8,0.1-2.1,0.3-3.9c0.1-1.2,0.4-2.4,0.9-3.5c0.1-0.4,0.4-0.8,0.7-1.2c0.2-0.3,0.6-0.4,1-0.4
	c0.9,0,1.9,0.2,2.7,0.6c0.8,0.4,1.5,0.9,2.1,1.5c0.5,0.7,1,1.5,1.3,2.3c0.4,0.9,0.6,1.9,0.8,2.9c0.2,1.1,0.2,2.2,0.2,3.4v0.3
	c0,0.8,0,1.5,0,2.1v2.2c0,7.3-1.7,11-5.1,11C39.4,105.9,38.8,105.7,38.3,105.3z M41.2,103.8c0.4-0.4,0.7-0.9,0.9-1.5
	c0.5-1.3,0.8-2.8,0.9-4.2c0.1-1.3,0.2-2.4,0.2-3.3c0-1.1-0.1-2.6-0.3-4.5c-0.2-1.9-0.2-3.4-0.2-4.4v-0.7c0-0.9-0.4-1.8-1-2.5
	c-0.5-0.7-1.3-1.1-2.2-1.1c-0.9,0-1.6,0.6-1.7,1.5c-0.3,1-0.4,2-0.4,3c0,0.5,0,0.9,0,1.2v1l0,1.8c0,0.5-0.1,1.1-0.1,1.8
	c0,1.4,0,2.7,0.1,4.1c0.1,1.9,0.3,3.7,0.8,5.6c0.4,1.9,1,2.8,1.8,2.8C40.4,104.3,40.9,104.1,41.2,103.8z"/>
<path class="st0" d="M51.9,105.3c-0.6-0.4-1.1-1-1.4-1.7c-0.7-1.6-1.2-3.3-1.4-5.1c-0.2-1.7-0.3-3.3-0.3-5c0-0.3,0-0.5,0-0.8v-0.7
	c0-0.1,0-0.2,0-0.2v-0.7v-2.7c0-0.8,0.1-2.1,0.3-3.9c0.1-1.2,0.4-2.4,0.9-3.5c0.1-0.4,0.4-0.8,0.7-1.2c0.3-0.3,0.6-0.4,1-0.4
	c0.9,0,1.9,0.2,2.7,0.6c0.8,0.4,1.5,0.9,2,1.5c0.6,0.7,1,1.5,1.3,2.3c0.4,0.9,0.6,1.9,0.8,2.9c0.2,1.1,0.2,2.2,0.2,3.4v0.3
	c0,0.8,0,1.5,0,2.1v2.2c0,7.3-1.7,11-5.1,11C53,105.9,52.4,105.7,51.9,105.3z M54.9,103.8c0.4-0.4,0.7-0.9,0.9-1.5
	c0.5-1.3,0.8-2.8,0.9-4.2c0.1-1.3,0.2-2.4,0.2-3.3c0-1.1-0.1-2.6-0.3-4.5c-0.2-1.9-0.2-3.4-0.2-4.4v-0.7c0-0.9-0.4-1.8-1-2.5
	c-0.5-0.7-1.3-1.1-2.2-1.1c-0.9,0-1.6,0.6-1.7,1.5c-0.3,1-0.4,2-0.4,3c0,0.5,0,0.9,0,1.2v1L51,90.1c-0.1,0.6-0.1,1.2-0.1,1.8
	c0,1.4,0,2.7,0.1,4.1c0.1,1.9,0.4,3.7,0.8,5.6c0.4,1.9,1,2.8,1.8,2.8C54,104.3,54.5,104.1,54.9,103.8z"/>
<path class="st0" d="M63.2,100.4l0.1-6c0-1.8,0-3.8,0-6c0-0.8-0.1-2.1-0.2-3.8c-0.1-1.9-0.2-3-0.2-3.4c0-0.3,0.2-0.7,0.4-0.9
	c0.2-0.2,0.6-0.4,0.9-0.4c0.9,0,1.8,0.2,2.6,0.6c0.8,0.4,1.6,1,2.2,1.7c1.3,1.4,2.2,3.2,2.7,5.1c0.2,0.9,0.3,1.8,0.3,2.8
	c0,0.3,0,0.6,0,0.9v1v2.1c0,1.3,0,2.6-0.2,3.8c-0.1,1.2-0.4,2.3-0.9,3.4c-0.5,1.1-1.3,2.1-2.2,2.8c-0.5,0.4-1.1,0.8-1.8,1.1h-2.8
	C63.6,105.4,63.2,103.8,63.2,100.4z M67.3,103.1c0.4-0.3,0.8-0.6,1.1-1.1c0.3-0.5,0.5-1,0.7-1.5c0.2-0.6,0.4-1.2,0.5-1.8
	c0.2-1.2,0.4-2.3,0.4-3.5c0-0.3,0-0.7,0-1.3c0-7.6-1.5-11.6-4.4-12c-0.2,1.3-0.3,2.7-0.3,4c0,1.6,0.1,4.4,0.3,8.4
	c0.2,3.5,0.3,6.3,0.3,8.4v0.9C66.4,103.5,66.9,103.4,67.3,103.1z"/>
<path class="st1" d="M1.5,11.5c-0.2-0.1-0.4-0.3-0.6-0.5c-0.2-0.2-0.3-0.5-0.4-0.8c-0.1-0.3-0.2-0.7-0.3-1C0.1,8.4,0,7.6,0,6.8
	c0-0.2,0-0.6,0-1.2V4.7c0-0.3,0-0.6,0-0.8c0-0.5,0-0.9,0.1-1.4c0-0.2,0-0.3-0.1-0.5c0-0.6,0.2-1.1,0.7-1.4C1.2,0.2,1.8,0,2.5,0
	C2.7,0,3,0.1,3.2,0.2c0.2,0.1,0.3,0.3,0.3,0.5c0,0.1,0,0.2-0.1,0.2C3.3,1.1,3.2,1.1,3.1,1.1C3,1.1,2.9,1.1,2.8,1
	C2.7,1,2.6,1,2.5,0.9H2.3l0,0C2,0.9,1.7,1,1.4,1.1C1.2,1.3,1,1.5,1,1.8c0,0.1-0.1,0.3-0.1,0.4c0,0.2,0,0.3,0,0.5c0,0.1,0,0.2,0,0.5
	v0.5v0.5c0,0.2,0,0.3-0.1,0.5c0,0.2-0.1,0.4-0.1,0.5v0.4c0,0.4,0,0.9,0,1.6c0,0.6,0.1,1.1,0.2,1.7C1,9.4,1.2,9.8,1.5,10.2
	c0.2,0.4,0.6,0.6,1,0.6c0.2,0,0.5-0.1,0.6-0.3c0.2-0.1,0.4-0.2,0.6-0.3c0.2,0,0.3,0.1,0.4,0.2c0,0.3-0.1,0.7-0.4,0.9
	c-0.3,0.2-0.6,0.3-0.9,0.4H2.3C2,11.7,1.8,11.6,1.5,11.5z"/>
<path class="st1" d="M6.3,11.5c-0.2-0.2-0.4-0.4-0.5-0.7c-0.3-0.6-0.5-1.3-0.5-2c-0.1-0.7-0.1-1.3-0.1-2c0-0.1,0-0.2,0-0.3V6.2V6.2
	V5.9v-1c0-0.3,0-0.8,0.1-1.5c0-0.5,0.2-0.9,0.3-1.4c0.1-0.2,0.1-0.3,0.3-0.5c0.1-0.1,0.2-0.2,0.4-0.1c0.4,0,0.7,0.1,1.1,0.2
	c0.3,0.1,0.6,0.3,0.8,0.6c0.2,0.3,0.4,0.6,0.5,0.9c0.1,0.4,0.2,0.8,0.3,1.2C9,4.7,9,5.2,9,5.6v0.1C9,6,9,6.3,9,6.6v0.9
	c0,2.9-0.7,4.3-2,4.3C6.8,11.7,6.5,11.6,6.3,11.5z M7.5,10.9c0.2-0.2,0.3-0.4,0.3-0.6C8,9.8,8.1,9.2,8.2,8.6c0-0.5,0.1-1,0.1-1.3
	s0-1-0.1-1.8S8,4.2,8,3.8V3.6c0-0.4-0.1-0.7-0.4-1C7.5,2.3,7.1,2.1,6.8,2.1c-0.3,0-0.6,0.2-0.7,0.6C6,3.1,6,3.5,6,3.9
	c0,0.2,0,0.4,0,0.5v0.4v0.7C6,5.7,6,6,6,6.2c0,0.5,0,1.1,0,1.6c0,0.7,0.1,1.5,0.3,2.2c0.2,0.7,0.4,1.1,0.7,1.1
	C7.2,11.1,7.4,11,7.5,10.9L7.5,10.9z"/>
<path class="st1" d="M14.5,11.4c-0.1-0.1-0.1-0.2-0.1-0.3l-0.1-0.3v-0.1c-0.2-1.2-0.6-2.3-1-3.4c-0.7-1.9-1.2-3.3-1.6-4.3v7.5
	l0.1,0.1l0.1,0.1c0,0,0,0.1,0,0.1c0,0.2-0.2,0.4-0.4,0.5c0,0,0,0,0,0c-0.3,0-0.5-0.3-0.5-0.9V8c0-0.8,0-1.6,0-2.6c0-0.3,0-0.8,0-1.4
	s0-1.1,0-1.4c0-0.4,0.2-0.8,0.5-1.1v0.1h0.1c0.2,0,0.5,0.4,0.9,1.2c0.3,0.6,0.5,1.3,0.8,2s0.5,1.7,0.9,3l0.1,0.5
	c0.2,0.8,0.4,1.4,0.5,1.7c0.2-2.1,0.3-4.7,0.3-7.6V2.3c0-0.1,0-0.1,0-0.2c0-0.3,0.1-0.4,0.4-0.4c0.1,0,0.3,0.1,0.3,0.2
	c0.1,0.1,0.1,0.3,0.1,0.4v1.1c0,1.5-0.1,3.2-0.2,5c0,1-0.1,2-0.4,3c-0.2,0.1-0.4,0.1-0.5,0.1C14.7,11.5,14.6,11.5,14.5,11.4z"/>
<path class="st1" d="M21.7,11.4c-0.1-0.1-0.1-0.2-0.1-0.3l-0.1-0.3v-0.1c-0.2-1.2-0.6-2.3-1-3.4c-0.7-1.9-1.2-3.3-1.6-4.3v7.5
	l0.1,0.1l0.1,0.1c0,0,0,0.1,0,0.1c0,0.1,0,0.2-0.1,0.3c-0.1,0.1-0.2,0.1-0.3,0.1c-0.3,0-0.5-0.3-0.5-0.9V8c0-0.8,0-1.6,0-2.6
	c0-0.3,0-0.8,0-1.4s0-1.1,0-1.4c0-0.4,0.2-0.8,0.5-1.1v0.1h0.1c0.2,0,0.5,0.4,0.9,1.2c0.3,0.6,0.5,1.3,0.8,2s0.5,1.7,0.9,3l0.2,0.5
	c0.2,0.8,0.4,1.4,0.5,1.7c0.2-2.1,0.3-4.7,0.3-7.6V2.3c0-0.1,0-0.1,0-0.2c0-0.3,0.1-0.4,0.4-0.4c0.1,0,0.3,0.1,0.3,0.2
	C23,1.9,23,2,23,2.2v1.1c0,1.5-0.1,3.2-0.2,5c0,1-0.1,2-0.4,3c-0.2,0.1-0.4,0.1-0.5,0.1C21.8,11.5,21.8,11.4,21.7,11.4z"/>
<path class="st1" d="M25.4,11.5c-0.1-0.1-0.2-0.2-0.2-0.3v-0.7c0-0.1,0-0.2,0-0.3c0-0.2,0-0.5,0-1v-1c0-0.5,0-1.2,0-2.2
	s0.1-1.6,0.1-2.2c0-0.1,0-0.4,0-0.6s0-0.5,0-0.6c0-0.7,0.2-1.1,0.6-1.1c0.4,0,0.8,0.1,1.1,0.2c0.4,0.1,0.7,0.3,0.7,0.5
	c0,0.1,0,0.2-0.1,0.3c-0.1,0.1-0.2,0.2-0.3,0.2c-0.4-0.1-0.8-0.2-1.1-0.3c0,0.1,0,0.4,0,0.6s0,0.8,0,1.1c0,0.5,0,0.8,0,1.1v0.2h0.2
	h0.3c0.5,0,0.7,0.1,0.7,0.4c0,0.1,0,0.2-0.1,0.3c-0.1,0.1-0.2,0.1-0.3,0.1c-0.1,0-0.3,0-0.4,0h-0.4c0,0.3,0,0.6,0,1.1s0,1,0,1.4
	c0,0.6,0,1.1,0,1.4c0,0.3,0,0.6,0,0.8h0.5h0.6c0.4,0,0.6,0.1,0.6,0.4c0,0.1-0.1,0.3-0.2,0.3c-0.1,0.1-0.3,0.1-0.5,0.1h-1.5
	C25.6,11.7,25.5,11.6,25.4,11.5z"/>
<path class="st1" d="M30.6,11.6c-0.2,0-0.4-0.1-0.6-0.2c-0.7-0.4-1-1.6-1-3.5V6.6c0-0.4,0-0.8,0-1.1s0-0.6,0.1-1
	c0-0.3,0.1-0.6,0.1-0.9c0.1-0.3,0.2-0.6,0.3-0.8c0.1-0.3,0.2-0.5,0.4-0.7c0.2-0.2,0.4-0.3,0.7-0.4c0.3-0.1,0.6-0.2,0.9-0.2
	c0.1,0,0.2,0,0.3,0.1C32,1.7,32.1,1.8,32,1.9c0,0.1,0,0.2-0.1,0.3c-0.1,0.1-0.1,0.1-0.2,0.1H31c-0.2,0-0.4,0.2-0.5,0.4
	c-0.2,0.3-0.3,0.7-0.3,1C30.1,4.2,30,4.8,30,5.4v0.1V7c0,0.4,0,0.9,0,1.5c0,0.3,0,0.6,0,0.9c0,0.3,0.1,0.6,0.3,0.9
	c0.1,0.3,0.3,0.5,0.6,0.6c0.2,0,0.3,0,0.5,0c0.1,0,0.2,0,0.3-0.1c0.1,0,0.2,0,0.3,0.1c0.1,0.1,0.1,0.2,0.1,0.3
	c0,0.4-0.3,0.6-0.8,0.6C31.1,11.6,30.8,11.6,30.6,11.6z"/>
<path class="st1" d="M34.3,11.2v-0.6c0-0.2,0-0.4,0-0.6V9.5c0-0.1-0.1-1.2-0.2-3.3s-0.2-3.4-0.2-4c-0.4,0-0.8,0-1.1-0.2
	c-0.1-0.1-0.2-0.2-0.2-0.3c0-0.1,0.1-0.2,0.2-0.2c0.1-0.1,0.2-0.1,0.3-0.1c0.3,0,0.6,0,1,0.1c0.3,0,0.7,0.1,1,0.1h0.2
	c0.3,0,0.5,0.1,0.5,0.4c0,0.1-0.1,0.2-0.2,0.3c-0.1,0.1-0.2,0.1-0.3,0.1c-0.1,0-0.3,0-0.4,0l-0.3-0.1v0.1v0.1c0,0.9,0.1,2.3,0.3,4.3
	s0.2,3.2,0.2,4.3c0,0.1-0.1,0.2-0.2,0.3c-0.1,0.1-0.2,0.1-0.3,0.1L34.3,11.2z"/>
<path class="st1" d="M36.8,11c0-0.2,0.2-0.4,0.5-0.4h0.2h0.2c0.1,0,0.1,0,0.2-0.1c0-0.1,0.1-0.2,0-0.3c0-0.2,0-0.4,0-0.8
	s-0.1-0.7-0.1-1.3c-0.1-1.5-0.1-2.7-0.1-3.5c0-0.3,0-0.5,0-0.8V3.2c0-0.3,0-0.5,0-0.8c-0.1,0-0.2,0.1-0.3,0.1
	c-0.2,0-0.3-0.1-0.4-0.3c0,0,0-0.1,0-0.1c0-0.1,0.1-0.2,0.2-0.3c0.2-0.1,0.4-0.2,0.6-0.2c0.4-0.1,0.7-0.1,1.1-0.1
	c0.1,0,0.2,0,0.3,0.1c0.1,0.1,0.1,0.2,0.1,0.3c0,0.1,0,0.2-0.1,0.3c-0.1,0.1-0.1,0.1-0.2,0.1h-0.2h-0.1c-0.1,0-0.2,0-0.2,0.1
	c-0.1,0.1-0.1,0.2-0.1,0.2c0,1,0.1,2.4,0.2,4.4c0,0.4,0,0.9,0.1,1.6c0.1,0.5,0.1,0.9,0.1,1.4v0.6h0.3c0.4,0,0.6,0.2,0.6,0.5v0.1
	l-0.4,0.3h-0.4h-0.6C37.2,11.4,36.8,11.3,36.8,11z"/>
<path class="st1" d="M44.5,11.4c-0.1-0.1-0.1-0.2-0.1-0.3l0-0.3v-0.1c-0.2-1.2-0.6-2.3-1-3.4c-0.7-1.9-1.2-3.3-1.6-4.3v7.5l0.1,0.1
	l0.1,0.1c0,0,0,0.1,0,0.1c0,0.2-0.2,0.4-0.4,0.5c0,0,0,0,0,0c-0.3,0-0.5-0.3-0.5-0.9V8c0-0.8,0-1.6,0-2.6c0-0.3,0-0.8,0-1.4
	s0-1.1,0-1.4c0-0.4,0.2-0.8,0.5-1.1v0.1h0.1c0.2,0,0.5,0.4,0.9,1.2c0.3,0.7,0.5,1.3,0.8,2c0.2,0.7,0.5,1.7,0.9,3l0.2,0.5
	c0.2,0.8,0.4,1.4,0.5,1.7C44.9,7.9,45,5.4,45,2.4V2.3c0-0.1,0-0.1,0-0.2c0-0.3,0.1-0.4,0.4-0.4c0.1,0,0.3,0.1,0.3,0.2
	c0.1,0.1,0.1,0.3,0.1,0.4v1.1c0,1.5-0.1,3.2-0.2,5c0,1-0.1,2-0.4,3c-0.2,0.1-0.4,0.1-0.5,0.1C44.7,11.5,44.6,11.4,44.5,11.4z"/>
<path class="st1" d="M49,11.4c-0.2-0.1-0.4-0.2-0.6-0.4c-0.2-0.2-0.3-0.4-0.4-0.6c-0.1-0.3-0.2-0.5-0.2-0.8
	c-0.1-0.3-0.1-0.5-0.1-0.8c0-0.4,0-0.7-0.1-0.9V6.4c0-0.6,0-1,0-1.4c0-0.5,0.1-1,0.2-1.4c0.1-0.4,0.2-0.8,0.5-1.2
	c0.2-0.3,0.5-0.6,0.9-0.7c0.2-0.1,0.4-0.1,0.6-0.1c0.4,0,0.7,0.1,0.7,0.4c0,0.1-0.1,0.2-0.1,0.3c-0.1,0.1-0.2,0.1-0.3,0.1h-0.2h-0.2
	c-0.2,0-0.4,0.1-0.5,0.3c-0.1,0.2-0.3,0.5-0.3,0.8c-0.2,0.7-0.3,1.3-0.3,2c0,0.7-0.1,1.2-0.1,1.5c0,0.3,0,0.8,0,1.4
	c0,0.5,0.1,1,0.3,1.4c0.1,0.2,0.1,0.4,0.2,0.6c0.1,0.1,0.2,0.3,0.4,0.4c0.2,0.1,0.3,0.2,0.5,0.2c0.5,0,0.7-0.8,0.7-2.4V7.7
	c-0.1,0-0.2,0-0.3,0H50c-0.3,0-0.5-0.1-0.5-0.4c0-0.1,0.1-0.2,0.2-0.3C49.7,7,49.9,6.9,50,6.9h0.3c0.9,0,1.3,0.2,1.3,0.5
	c0,0.2,0,0.4-0.1,0.5c0,0.2-0.1,0.4-0.1,0.5c0,0.2,0,0.4,0,0.8v0.8c0,0.4-0.2,0.9-0.5,1.1C50.4,11.6,49.7,11.7,49,11.4L49,11.4z"/>
</svg>
